<svg xmlns="http://www.w3.org/2000/svg" xmlns:xlink="http://www.w3.org/1999/xlink" width="223" zoomAndPan="magnify" viewBox="0 0 167.25 167.249997" height="223" preserveAspectRatio="xMidYMid meet" version="1.0"><defs><clipPath id="9f20d856fc"><path d="M 0 0 L 166 0 L 166 166.503906 L 0 166.503906 Z M 0 0 " clip-rule="nonzero"/></clipPath><clipPath id="0dd87e8e76"><path d="M 78 145 L 166 145 L 166 166.503906 L 78 166.503906 Z M 78 145 " clip-rule="nonzero"/></clipPath></defs><g clip-path="url(#9f20d856fc)"><path fill="#293a4c" d="M 82.960938 166.210938 C 37.214844 166.210938 0 128.996094 0 83.25 C 0 37.507812 37.214844 0.292969 82.960938 0.292969 C 128.707031 0.292969 165.921875 37.507812 165.921875 83.25 C 165.921875 128.996094 128.707031 166.210938 82.960938 166.210938 Z M 82.960938 9.023438 C 42.03125 9.023438 8.734375 42.320312 8.734375 83.25 C 8.734375 124.183594 42.03125 157.480469 82.960938 157.480469 C 123.890625 157.480469 157.1875 124.183594 157.1875 83.25 C 157.1875 42.320312 123.890625 9.023438 82.960938 9.023438 Z M 82.960938 9.023438 " fill-opacity="1" fill-rule="nonzero"/></g><path fill="#293a4c" d="M 82.960938 151.65625 C 45.242188 151.65625 14.554688 120.972656 14.554688 83.25 C 14.554688 45.53125 45.242188 14.84375 82.960938 14.84375 C 120.679688 14.84375 151.367188 45.53125 151.367188 83.25 C 151.367188 120.972656 120.679688 151.65625 82.960938 151.65625 Z M 82.960938 23.578125 C 50.054688 23.578125 23.289062 50.347656 23.289062 83.25 C 23.289062 116.15625 50.054688 142.925781 82.960938 142.925781 C 115.867188 142.925781 142.632812 116.15625 142.632812 83.25 C 142.632812 50.347656 115.867188 23.578125 82.960938 23.578125 Z M 82.960938 23.578125 " fill-opacity="1" fill-rule="nonzero"/><path fill="#293a4c" d="M 62.839844 83.25 C 62.839844 84.230469 62.746094 85.203125 62.554688 86.164062 C 62.363281 87.125 62.078125 88.058594 61.703125 88.964844 C 61.328125 89.871094 60.867188 90.730469 60.324219 91.546875 C 59.78125 92.363281 59.160156 93.117188 58.46875 93.808594 C 57.773438 94.5 57.019531 95.121094 56.207031 95.664062 C 55.390625 96.210938 54.53125 96.671875 53.625 97.046875 C 52.71875 97.421875 51.785156 97.703125 50.824219 97.894531 C 49.863281 98.085938 48.890625 98.183594 47.910156 98.183594 C 46.929688 98.183594 45.960938 98.085938 44.996094 97.894531 C 44.035156 97.703125 43.101562 97.421875 42.195312 97.046875 C 41.292969 96.671875 40.429688 96.210938 39.617188 95.664062 C 38.800781 95.121094 38.046875 94.5 37.351562 93.808594 C 36.660156 93.117188 36.042969 92.363281 35.496094 91.546875 C 34.953125 90.730469 34.492188 89.871094 34.117188 88.964844 C 33.742188 88.058594 33.457031 87.125 33.265625 86.164062 C 33.074219 85.203125 32.980469 84.230469 32.980469 83.25 C 32.980469 82.269531 33.074219 81.300781 33.265625 80.339844 C 33.457031 79.378906 33.742188 78.445312 34.117188 77.539062 C 34.492188 76.632812 34.953125 75.773438 35.496094 74.957031 C 36.042969 74.140625 36.660156 73.386719 37.351562 72.695312 C 38.046875 72 38.800781 71.382812 39.617188 70.835938 C 40.429688 70.292969 41.292969 69.832031 42.195312 69.457031 C 43.101562 69.082031 44.035156 68.800781 44.996094 68.609375 C 45.960938 68.417969 46.929688 68.320312 47.910156 68.320312 C 48.890625 68.320312 49.863281 68.417969 50.824219 68.609375 C 51.785156 68.800781 52.71875 69.082031 53.625 69.457031 C 54.53125 69.832031 55.390625 70.292969 56.207031 70.835938 C 57.019531 71.382812 57.773438 72 58.46875 72.695312 C 59.160156 73.386719 59.78125 74.140625 60.324219 74.957031 C 60.867188 75.773438 61.328125 76.632812 61.703125 77.539062 C 62.078125 78.445312 62.363281 79.378906 62.554688 80.339844 C 62.746094 81.300781 62.839844 82.269531 62.839844 83.25 Z M 62.839844 83.25 " fill-opacity="1" fill-rule="nonzero"/><path fill="#293a4c" d="M 47.90625 102.546875 C 37.269531 102.546875 28.609375 93.890625 28.609375 83.25 C 28.609375 72.613281 37.269531 63.957031 47.90625 63.957031 C 58.546875 63.957031 67.203125 72.613281 67.203125 83.25 C 67.203125 93.890625 58.546875 102.546875 47.90625 102.546875 Z M 47.90625 72.6875 C 42.082031 72.6875 37.34375 77.425781 37.34375 83.25 C 37.34375 89.078125 42.082031 93.816406 47.90625 93.816406 C 53.730469 93.816406 58.472656 89.078125 58.472656 83.25 C 58.472656 77.425781 53.730469 72.6875 47.90625 72.6875 Z M 47.90625 72.6875 " fill-opacity="1" fill-rule="nonzero"/><path fill="#293a4c" d="M 132.941406 83.25 C 132.941406 84.230469 132.84375 85.203125 132.652344 86.164062 C 132.460938 87.125 132.179688 88.058594 131.804688 88.964844 C 131.429688 89.871094 130.96875 90.730469 130.425781 91.546875 C 129.878906 92.363281 129.261719 93.117188 128.566406 93.808594 C 127.875 94.5 127.121094 95.121094 126.304688 95.664062 C 125.492188 96.210938 124.628906 96.671875 123.722656 97.046875 C 122.820312 97.421875 121.886719 97.703125 120.921875 97.894531 C 119.960938 98.085938 118.992188 98.183594 118.011719 98.183594 C 117.03125 98.183594 116.058594 98.085938 115.097656 97.894531 C 114.136719 97.703125 113.203125 97.421875 112.296875 97.046875 C 111.390625 96.671875 110.53125 96.210938 109.714844 95.664062 C 108.902344 95.121094 108.148438 94.5 107.453125 93.808594 C 106.761719 93.117188 106.140625 92.363281 105.597656 91.546875 C 105.050781 90.730469 104.59375 89.871094 104.21875 88.964844 C 103.84375 88.058594 103.558594 87.125 103.367188 86.164062 C 103.175781 85.203125 103.082031 84.230469 103.082031 83.25 C 103.082031 82.269531 103.175781 81.300781 103.367188 80.339844 C 103.558594 79.378906 103.84375 78.445312 104.21875 77.539062 C 104.59375 76.632812 105.050781 75.773438 105.597656 74.957031 C 106.140625 74.140625 106.761719 73.386719 107.453125 72.695312 C 108.148438 72 108.902344 71.382812 109.714844 70.835938 C 110.53125 70.292969 111.390625 69.832031 112.296875 69.457031 C 113.203125 69.082031 114.136719 68.800781 115.097656 68.609375 C 116.058594 68.417969 117.03125 68.320312 118.011719 68.320312 C 118.992188 68.320312 119.960938 68.417969 120.921875 68.609375 C 121.886719 68.800781 122.820312 69.082031 123.722656 69.457031 C 124.628906 69.832031 125.492188 70.292969 126.304688 70.835938 C 127.121094 71.382812 127.875 72 128.566406 72.695312 C 129.261719 73.386719 129.878906 74.140625 130.425781 74.957031 C 130.96875 75.773438 131.429688 76.632812 131.804688 77.539062 C 132.179688 78.445312 132.460938 79.378906 132.652344 80.339844 C 132.84375 81.300781 132.941406 82.269531 132.941406 83.25 Z M 132.941406 83.25 " fill-opacity="1" fill-rule="nonzero"/><path fill="#293a4c" d="M 118.011719 102.546875 C 107.375 102.546875 98.71875 93.890625 98.71875 83.25 C 98.71875 72.613281 107.375 63.957031 118.011719 63.957031 C 128.652344 63.957031 137.308594 72.613281 137.308594 83.25 C 137.308594 93.890625 128.652344 102.546875 118.011719 102.546875 Z M 118.011719 72.6875 C 112.1875 72.6875 107.449219 77.425781 107.449219 83.25 C 107.449219 89.078125 112.1875 93.816406 118.011719 93.816406 C 123.839844 93.816406 128.578125 89.078125 128.578125 83.25 C 128.578125 77.425781 123.839844 72.6875 118.011719 72.6875 Z M 118.011719 72.6875 " fill-opacity="1" fill-rule="nonzero"/><path fill="#293a4c" d="M 97.890625 118.300781 C 97.890625 119.28125 97.796875 120.253906 97.605469 121.214844 C 97.414062 122.175781 97.128906 123.109375 96.753906 124.015625 C 96.378906 124.921875 95.917969 125.78125 95.375 126.597656 C 94.828125 127.410156 94.210938 128.164062 93.519531 128.859375 C 92.824219 129.550781 92.070312 130.171875 91.253906 130.714844 C 90.441406 131.261719 89.578125 131.71875 88.675781 132.09375 C 87.769531 132.46875 86.835938 132.753906 85.875 132.945312 C 84.910156 133.136719 83.941406 133.230469 82.960938 133.230469 C 81.980469 133.230469 81.007812 133.136719 80.046875 132.945312 C 79.085938 132.753906 78.152344 132.46875 77.246094 132.09375 C 76.339844 131.71875 75.480469 131.261719 74.664062 130.714844 C 73.851562 130.171875 73.097656 129.550781 72.402344 128.859375 C 71.710938 128.164062 71.089844 127.410156 70.546875 126.597656 C 70.003906 125.78125 69.542969 124.921875 69.167969 124.015625 C 68.792969 123.109375 68.507812 122.175781 68.316406 121.214844 C 68.125 120.253906 68.03125 119.28125 68.03125 118.300781 C 68.03125 117.320312 68.125 116.351562 68.316406 115.390625 C 68.507812 114.425781 68.792969 113.492188 69.167969 112.589844 C 69.542969 111.683594 70.003906 110.820312 70.546875 110.007812 C 71.089844 109.191406 71.710938 108.4375 72.402344 107.746094 C 73.097656 107.050781 73.851562 106.433594 74.664062 105.886719 C 75.480469 105.34375 76.339844 104.882812 77.246094 104.507812 C 78.152344 104.132812 79.085938 103.851562 80.046875 103.660156 C 81.007812 103.46875 81.980469 103.371094 82.960938 103.371094 C 83.941406 103.371094 84.910156 103.46875 85.875 103.660156 C 86.835938 103.851562 87.769531 104.132812 88.675781 104.507812 C 89.578125 104.882812 90.441406 105.34375 91.253906 105.886719 C 92.070312 106.433594 92.824219 107.050781 93.519531 107.746094 C 94.210938 108.4375 94.828125 109.191406 95.375 110.007812 C 95.917969 110.820312 96.378906 111.683594 96.753906 112.589844 C 97.128906 113.492188 97.414062 114.425781 97.605469 115.390625 C 97.796875 116.351562 97.890625 117.320312 97.890625 118.300781 Z M 97.890625 118.300781 " fill-opacity="1" fill-rule="nonzero"/><path fill="#293a4c" d="M 82.960938 137.597656 C 72.320312 137.597656 63.664062 128.941406 63.664062 118.300781 C 63.664062 107.664062 72.320312 99.007812 82.960938 99.007812 C 93.601562 99.007812 102.257812 107.664062 102.257812 118.300781 C 102.257812 128.9375 93.601562 137.597656 82.960938 137.597656 Z M 82.960938 107.742188 C 77.136719 107.742188 72.398438 112.480469 72.398438 118.300781 C 72.398438 124.125 77.136719 128.867188 82.960938 128.867188 C 88.785156 128.867188 93.523438 124.125 93.523438 118.300781 C 93.523438 112.476562 88.785156 107.742188 82.960938 107.742188 Z M 82.960938 107.742188 " fill-opacity="1" fill-rule="nonzero"/><path fill="#293a4c" d="M 97.890625 48.203125 C 97.890625 49.183594 97.796875 50.152344 97.605469 51.113281 C 97.414062 52.074219 97.128906 53.007812 96.753906 53.914062 C 96.378906 54.820312 95.917969 55.679688 95.375 56.496094 C 94.828125 57.3125 94.210938 58.066406 93.519531 58.757812 C 92.824219 59.453125 92.070312 60.070312 91.253906 60.617188 C 90.441406 61.160156 89.578125 61.621094 88.675781 61.996094 C 87.769531 62.371094 86.835938 62.652344 85.875 62.84375 C 84.910156 63.035156 83.941406 63.132812 82.960938 63.132812 C 81.980469 63.132812 81.007812 63.035156 80.046875 62.84375 C 79.085938 62.652344 78.152344 62.371094 77.246094 61.996094 C 76.339844 61.621094 75.480469 61.160156 74.664062 60.617188 C 73.851562 60.070312 73.097656 59.453125 72.402344 58.757812 C 71.710938 58.066406 71.089844 57.3125 70.546875 56.496094 C 70.003906 55.679688 69.542969 54.820312 69.167969 53.914062 C 68.792969 53.007812 68.507812 52.074219 68.316406 51.113281 C 68.125 50.152344 68.03125 49.183594 68.03125 48.203125 C 68.03125 47.222656 68.125 46.25 68.316406 45.289062 C 68.507812 44.328125 68.792969 43.394531 69.167969 42.488281 C 69.542969 41.582031 70.003906 40.722656 70.546875 39.90625 C 71.089844 39.089844 71.710938 38.335938 72.402344 37.644531 C 73.097656 36.953125 73.851562 36.332031 74.664062 35.789062 C 75.480469 35.242188 76.339844 34.78125 77.246094 34.40625 C 78.152344 34.03125 79.085938 33.75 80.046875 33.558594 C 81.007812 33.367188 81.980469 33.273438 82.960938 33.273438 C 83.941406 33.273438 84.910156 33.367188 85.875 33.558594 C 86.835938 33.75 87.769531 34.03125 88.675781 34.40625 C 89.578125 34.78125 90.441406 35.242188 91.253906 35.789062 C 92.070312 36.332031 92.824219 36.953125 93.519531 37.644531 C 94.210938 38.335938 94.828125 39.089844 95.375 39.90625 C 95.917969 40.722656 96.378906 41.582031 96.753906 42.488281 C 97.128906 43.394531 97.414062 44.328125 97.605469 45.289062 C 97.796875 46.25 97.890625 47.222656 97.890625 48.203125 Z M 97.890625 48.203125 " fill-opacity="1" fill-rule="nonzero"/><path fill="#293a4c" d="M 82.960938 67.496094 C 72.320312 67.496094 63.664062 58.839844 63.664062 48.203125 C 63.664062 37.566406 72.320312 28.90625 82.960938 28.90625 C 93.601562 28.90625 102.257812 37.5625 102.257812 48.203125 C 102.257812 58.839844 93.601562 67.496094 82.960938 67.496094 Z M 82.960938 37.636719 C 77.136719 37.636719 72.398438 42.375 72.398438 48.203125 C 72.398438 54.027344 77.136719 58.761719 82.960938 58.761719 C 88.785156 58.761719 93.523438 54.023438 93.523438 48.203125 C 93.523438 42.378906 88.785156 37.636719 82.960938 37.636719 Z M 82.960938 37.636719 " fill-opacity="1" fill-rule="nonzero"/><path fill="#293a4c" d="M 82.960938 95.050781 C 76.453125 95.050781 71.164062 89.757812 71.164062 83.25 C 71.164062 76.746094 76.453125 71.453125 82.960938 71.453125 C 89.464844 71.453125 94.757812 76.746094 94.757812 83.25 C 94.757812 89.757812 89.464844 95.050781 82.960938 95.050781 Z M 82.960938 80.1875 C 81.269531 80.1875 79.894531 81.5625 79.894531 83.25 C 79.894531 84.941406 81.273438 86.316406 82.960938 86.316406 C 84.648438 86.316406 86.027344 84.941406 86.027344 83.25 C 86.027344 81.5625 84.648438 80.1875 82.960938 80.1875 Z M 82.960938 80.1875 " fill-opacity="1" fill-rule="nonzero"/><g clip-path="url(#0dd87e8e76)"><path fill="#293a4c" d="M 128.203125 166.210938 L 82.960938 166.210938 C 80.546875 166.210938 78.59375 164.257812 78.59375 161.847656 C 78.59375 159.4375 80.546875 157.480469 82.960938 157.480469 L 128.203125 157.480469 C 139.320312 157.480469 150.183594 153.609375 158.789062 146.574219 C 160.660156 145.042969 163.410156 145.328125 164.933594 147.191406 C 166.460938 149.0625 166.183594 151.8125 164.316406 153.335938 C 154.152344 161.640625 141.328125 166.210938 128.203125 166.210938 Z M 128.203125 166.210938 " fill-opacity="1" fill-rule="nonzero"/></g></svg>