<svg xmlns="http://www.w3.org/2000/svg" xmlns:xlink="http://www.w3.org/1999/xlink" width="223" zoomAndPan="magnify" viewBox="0 0 167.25 167.249997" height="223" preserveAspectRatio="xMidYMid meet" version="1.0"><defs><clipPath id="d40911e406"><path d="M 114 49 L 166.503906 49 L 166.503906 127 L 114 127 Z M 114 49 " clip-rule="nonzero"/></clipPath><clipPath id="0147ac307f"><path d="M 79 134 L 110 134 L 110 166.503906 L 79 166.503906 Z M 79 134 " clip-rule="nonzero"/></clipPath><clipPath id="f321ab14f1"><path d="M 57 134 L 66 134 L 66 166.503906 L 57 166.503906 Z M 57 134 " clip-rule="nonzero"/></clipPath><clipPath id="cdb0b51f66"><path d="M 13 134 L 45 134 L 45 166.503906 L 13 166.503906 Z M 13 134 " clip-rule="nonzero"/></clipPath></defs><path fill="#293a4c" d="M 17.964844 117.164062 C 20.390625 117.164062 22.347656 119.121094 22.347656 121.546875 L 22.347656 125.929688 L 100.835938 125.929688 L 100.835938 121.546875 C 100.835938 119.121094 102.792969 117.164062 105.21875 117.164062 Z M 118.800781 50.535156 L 4.382812 50.535156 C 4.207031 50.535156 4.03125 50.535156 3.886719 50.59375 C 1.695312 50.828125 0 52.667969 0 54.917969 L 0 121.546875 C 0 123.941406 1.957031 125.929688 4.382812 125.929688 L 118.800781 125.929688 C 121.226562 125.929688 123.183594 123.941406 123.183594 121.546875 L 123.183594 54.917969 C 123.183594 52.492188 121.226562 50.535156 118.800781 50.535156 Z M 114.421875 117.164062 L 8.761719 117.164062 L 8.761719 59.296875 L 114.421875 59.296875 Z M 114.421875 117.164062 " fill-opacity="1" fill-rule="nonzero"/><path fill="#293a4c" d="M 105.21875 142.972656 L 17.96875 142.972656 C 15.546875 142.972656 13.585938 141.007812 13.585938 138.589844 L 13.585938 121.535156 C 13.585938 119.117188 15.546875 117.152344 17.96875 117.152344 C 20.390625 117.152344 22.347656 119.117188 22.347656 121.535156 L 22.347656 134.207031 L 100.835938 134.207031 L 100.835938 121.535156 C 100.835938 119.117188 102.796875 117.152344 105.21875 117.152344 C 107.640625 117.152344 109.601562 119.117188 109.601562 121.535156 L 109.601562 138.589844 C 109.601562 141.007812 107.640625 142.972656 105.21875 142.972656 Z M 105.21875 142.972656 " fill-opacity="1" fill-rule="nonzero"/><g clip-path="url(#d40911e406)"><path fill="#293a4c" d="M 154.484375 126.910156 C 152.746094 126.910156 151 126.527344 149.363281 125.757812 L 116.941406 110.515625 C 114.75 109.484375 113.808594 106.875 114.839844 104.6875 C 115.867188 102.492188 118.480469 101.558594 120.671875 102.582031 L 153.09375 117.824219 C 154.554688 118.515625 155.773438 117.917969 156.230469 117.628906 C 156.683594 117.339844 157.746094 116.492188 157.746094 114.875 L 157.746094 61.574219 C 157.746094 59.953125 156.6875 59.105469 156.230469 58.820312 C 155.777344 58.527344 154.5625 57.929688 153.09375 58.625 L 120.671875 73.867188 C 118.484375 74.894531 115.867188 73.957031 114.839844 71.769531 C 113.808594 69.578125 114.75 66.964844 116.941406 65.9375 L 149.363281 50.691406 C 153.105469 48.929688 157.429688 49.203125 160.925781 51.421875 C 164.417969 53.640625 166.507812 57.4375 166.507812 61.578125 L 166.507812 114.878906 C 166.507812 119.019531 164.421875 122.816406 160.925781 125.03125 C 158.957031 126.28125 156.726562 126.917969 154.484375 126.917969 Z M 154.484375 126.910156 " fill-opacity="1" fill-rule="nonzero"/></g><g clip-path="url(#0147ac307f)"><path fill="#293a4c" d="M 105.21875 166.203125 C 104.050781 166.203125 102.882812 165.738281 102.019531 164.816406 L 80.25 141.582031 C 78.597656 139.820312 78.6875 137.042969 80.453125 135.390625 C 82.21875 133.738281 84.992188 133.828125 86.644531 135.59375 L 108.414062 158.824219 C 110.066406 160.589844 109.980469 163.363281 108.210938 165.015625 C 107.367188 165.808594 106.289062 166.199219 105.21875 166.199219 Z M 105.21875 166.203125 " fill-opacity="1" fill-rule="nonzero"/></g><g clip-path="url(#f321ab14f1)"><path fill="#293a4c" d="M 61.589844 166.203125 C 59.171875 166.203125 57.210938 164.238281 57.210938 161.820312 L 57.210938 138.589844 C 57.210938 136.171875 59.171875 134.207031 61.589844 134.207031 C 64.011719 134.207031 65.972656 136.171875 65.972656 138.589844 L 65.972656 161.820312 C 65.972656 164.238281 64.011719 166.203125 61.589844 166.203125 Z M 61.589844 166.203125 " fill-opacity="1" fill-rule="nonzero"/></g><g clip-path="url(#cdb0b51f66)"><path fill="#293a4c" d="M 17.964844 166.203125 C 16.894531 166.203125 15.816406 165.8125 14.96875 165.019531 C 13.207031 163.367188 13.113281 160.589844 14.769531 158.828125 L 36.539062 135.59375 C 38.195312 133.832031 40.964844 133.734375 42.730469 135.394531 C 44.496094 137.046875 44.585938 139.820312 42.929688 141.585938 L 21.164062 164.816406 C 20.300781 165.738281 19.132812 166.207031 17.964844 166.207031 Z M 17.964844 166.203125 " fill-opacity="1" fill-rule="nonzero"/></g><path fill="#293a4c" d="M 8.550781 59.285156 C 6.410156 59.285156 4.535156 57.714844 4.222656 55.535156 C 4.003906 54.0625 3.898438 52.527344 3.898438 50.972656 C 3.898438 33.851562 17.8125 19.917969 34.917969 19.917969 C 39 19.917969 42.925781 20.6875 46.589844 22.199219 C 52.613281 24.617188 57.875 29.058594 61.359375 34.675781 C 64.378906 39.5625 65.976562 45.199219 65.976562 50.96875 C 65.976562 52.007812 65.914062 53.015625 65.847656 54.023438 C 65.839844 54.195312 65.820312 54.371094 65.796875 54.535156 C 65.734375 54.890625 65.703125 55.066406 65.683594 55.253906 C 65.492188 57.664062 63.367188 59.425781 60.964844 59.269531 C 58.554688 59.078125 56.753906 56.964844 56.949219 54.550781 C 56.984375 54.128906 57.042969 53.738281 57.109375 53.332031 C 57.164062 52.550781 57.210938 51.773438 57.210938 50.96875 C 57.210938 46.824219 56.066406 42.785156 53.90625 39.289062 C 51.402344 35.246094 47.632812 32.054688 43.28125 30.3125 C 40.683594 29.242188 37.804688 28.679688 34.921875 28.679688 C 22.648438 28.679688 12.664062 38.679688 12.664062 50.96875 C 12.664062 52.105469 12.742188 53.214844 12.898438 54.269531 C 13.246094 56.660156 11.589844 58.886719 9.191406 59.238281 C 8.976562 59.269531 8.765625 59.285156 8.554688 59.285156 Z M 8.550781 59.285156 " fill-opacity="1" fill-rule="nonzero"/><path fill="#293a4c" d="M 24.457031 59.285156 C 22.683594 59.285156 21.015625 58.199219 20.355469 56.4375 C 19.695312 54.683594 19.367188 52.847656 19.367188 50.96875 C 19.367188 42.378906 26.34375 35.390625 34.917969 35.390625 C 38.351562 35.390625 41.730469 36.539062 44.433594 38.621094 C 48.296875 41.628906 50.503906 46.125 50.503906 50.96875 C 50.503906 52.851562 50.171875 54.6875 49.511719 56.441406 C 48.660156 58.707031 46.140625 59.859375 43.871094 59.003906 C 41.605469 58.152344 40.457031 55.625 41.308594 53.359375 C 41.597656 52.585938 41.738281 51.804688 41.738281 50.96875 C 41.738281 48.847656 40.765625 46.871094 39.0625 45.550781 C 37.886719 44.640625 36.445312 44.152344 34.917969 44.152344 C 31.175781 44.152344 28.128906 47.210938 28.128906 50.96875 C 28.128906 51.804688 28.269531 52.589844 28.5625 53.363281 C 29.414062 55.628906 28.261719 58.15625 25.996094 59.003906 C 25.488281 59.195312 24.96875 59.285156 24.457031 59.285156 Z M 24.457031 59.285156 " fill-opacity="1" fill-rule="nonzero"/><path fill="#293a4c" d="M 111.992188 59.285156 C 111.441406 59.285156 110.878906 59.183594 110.335938 58.960938 C 108.097656 58.046875 107.019531 55.488281 107.9375 53.246094 C 109.507812 49.40625 110.304688 45.339844 110.304688 41.164062 C 110.304688 23.460938 95.90625 9.0625 78.207031 9.0625 C 65.570312 9.0625 54.074219 16.511719 48.910156 28.039062 C 47.921875 30.246094 45.328125 31.238281 43.121094 30.25 C 40.914062 29.257812 39.921875 26.667969 40.914062 24.457031 C 47.484375 9.785156 62.125 0.300781 78.207031 0.300781 C 100.738281 0.300781 119.066406 18.628906 119.066406 41.164062 C 119.066406 46.484375 118.050781 51.664062 116.050781 56.5625 C 115.355469 58.257812 113.71875 59.285156 111.992188 59.285156 Z M 111.992188 59.285156 " fill-opacity="1" fill-rule="nonzero"/><path fill="#293a4c" d="M 99.214844 45.546875 C 96.792969 45.546875 94.832031 43.582031 94.832031 41.164062 C 94.832031 31.996094 87.375 24.539062 78.207031 24.539062 C 70.3125 24.539062 63.46875 30.132812 61.925781 37.847656 C 61.453125 40.21875 59.15625 41.78125 56.769531 41.285156 C 54.398438 40.8125 52.859375 38.503906 53.332031 36.128906 C 55.695312 24.335938 66.15625 15.773438 78.207031 15.773438 C 92.207031 15.773438 103.597656 27.164062 103.597656 41.164062 C 103.597656 43.582031 101.636719 45.546875 99.214844 45.546875 Z M 99.214844 45.546875 " fill-opacity="1" fill-rule="nonzero"/><path fill="#293a4c" d="M 27.839844 54.886719 L 27.839844 94.234375 L 95.34375 94.234375 L 95.34375 54.886719 Z M 75.246094 78.957031 L 49.425781 78.957031 C 47 78.957031 45.042969 76.972656 45.042969 74.574219 C 45.042969 72.152344 47 70.195312 49.425781 70.195312 L 75.246094 70.195312 C 77.644531 70.195312 79.628906 72.152344 79.628906 74.574219 C 79.628906 76.972656 77.644531 78.957031 75.246094 78.957031 Z M 75.246094 78.957031 " fill-opacity="1" fill-rule="nonzero"/><path fill="#293a4c" d="M 56.933594 54.886719 L 50.007812 54.886719 C 49.863281 55.414062 49.6875 55.9375 49.511719 56.4375 C 48.898438 58.101562 47.378906 59.152344 45.746094 59.269531 L 60.964844 59.269531 C 58.65625 59.066406 56.960938 57.167969 56.933594 54.886719 Z M 95.636719 50.535156 C 95.550781 50.507812 95.433594 50.507812 95.34375 50.507812 L 27.839844 50.507812 C 27.75 50.507812 27.632812 50.507812 27.546875 50.535156 C 25.269531 50.679688 23.457031 52.578125 23.457031 54.886719 L 23.457031 94.234375 C 23.457031 96.660156 25.414062 98.617188 27.839844 98.617188 L 95.34375 98.617188 C 97.769531 98.617188 99.726562 96.660156 99.726562 94.234375 L 99.726562 54.886719 C 99.726562 52.578125 97.914062 50.679688 95.636719 50.535156 Z M 90.964844 89.851562 L 32.21875 89.851562 L 32.21875 59.269531 L 90.964844 59.269531 Z M 90.964844 89.851562 " fill-opacity="1" fill-rule="nonzero"/><path fill="#293a4c" d="M 144.59375 122.691406 C 142.171875 122.691406 140.214844 120.730469 140.214844 118.3125 L 140.214844 58.339844 C 140.214844 55.921875 142.171875 53.957031 144.59375 53.957031 C 147.015625 53.957031 148.976562 55.921875 148.976562 58.339844 L 148.976562 118.3125 C 148.976562 120.730469 147.015625 122.691406 144.59375 122.691406 Z M 144.59375 122.691406 " fill-opacity="1" fill-rule="nonzero"/></svg>