<svg xmlns="http://www.w3.org/2000/svg" xmlns:xlink="http://www.w3.org/1999/xlink" width="118" zoomAndPan="magnify" viewBox="0 0 88.5 114.749996" height="153" preserveAspectRatio="xMidYMid meet" version="1.0"><defs><clipPath id="d2968e7eca"><path d="M 1 23 L 81 23 L 81 93 L 1 93 Z M 1 23 " clip-rule="nonzero"/></clipPath><clipPath id="fbce2f6788"><path d="M 25.703125 -5.59375 L 95.75 22.101562 L 59.832031 112.957031 L -10.21875 85.261719 Z M 25.703125 -5.59375 " clip-rule="nonzero"/></clipPath><clipPath id="7217f606a4"><path d="M 25.703125 -5.59375 L 95.75 22.101562 L 59.832031 112.957031 L -10.21875 85.261719 Z M 25.703125 -5.59375 " clip-rule="nonzero"/></clipPath><clipPath id="3cc87bc436"><path d="M 25.703125 -5.59375 L 95.75 22.101562 L 59.832031 112.957031 L -10.21875 85.261719 Z M 25.703125 -5.59375 " clip-rule="nonzero"/></clipPath><clipPath id="a8401844af"><path d="M 10 28 L 32 28 L 32 86 L 10 86 Z M 10 28 " clip-rule="nonzero"/></clipPath><clipPath id="01c0459402"><path d="M 25.703125 -5.59375 L 95.75 22.101562 L 59.832031 112.957031 L -10.21875 85.261719 Z M 25.703125 -5.59375 " clip-rule="nonzero"/></clipPath><clipPath id="f3e6ed6677"><path d="M 25.703125 -5.59375 L 95.75 22.101562 L 59.832031 112.957031 L -10.21875 85.261719 Z M 25.703125 -5.59375 " clip-rule="nonzero"/></clipPath><clipPath id="afed720114"><path d="M 25.703125 -5.59375 L 95.75 22.101562 L 59.832031 112.957031 L -10.21875 85.261719 Z M 25.703125 -5.59375 " clip-rule="nonzero"/></clipPath><clipPath id="672a33d68a"><path d="M 20 33 L 44 33 L 44 90 L 20 90 Z M 20 33 " clip-rule="nonzero"/></clipPath><clipPath id="4b00ff9857"><path d="M 25.703125 -5.59375 L 95.75 22.101562 L 59.832031 112.957031 L -10.21875 85.261719 Z M 25.703125 -5.59375 " clip-rule="nonzero"/></clipPath><clipPath id="b50e09108a"><path d="M 25.703125 -5.59375 L 95.75 22.101562 L 59.832031 112.957031 L -10.21875 85.261719 Z M 25.703125 -5.59375 " clip-rule="nonzero"/></clipPath><clipPath id="1146601587"><path d="M 25.703125 -5.59375 L 95.75 22.101562 L 59.832031 112.957031 L -10.21875 85.261719 Z M 25.703125 -5.59375 " clip-rule="nonzero"/></clipPath><clipPath id="53b5609df9"><path d="M 30 38 L 57 38 L 57 94 L 30 94 Z M 30 38 " clip-rule="nonzero"/></clipPath><clipPath id="8f36fb8b75"><path d="M 25.703125 -5.59375 L 95.75 22.101562 L 59.832031 112.957031 L -10.21875 85.261719 Z M 25.703125 -5.59375 " clip-rule="nonzero"/></clipPath><clipPath id="9d48d55abd"><path d="M 25.703125 -5.59375 L 95.75 22.101562 L 59.832031 112.957031 L -10.21875 85.261719 Z M 25.703125 -5.59375 " clip-rule="nonzero"/></clipPath><clipPath id="ce6dca07e6"><path d="M 25.703125 -5.59375 L 95.75 22.101562 L 59.832031 112.957031 L -10.21875 85.261719 Z M 25.703125 -5.59375 " clip-rule="nonzero"/></clipPath><clipPath id="c3de82df18"><path d="M 39 43 L 70 43 L 70 98 L 39 98 Z M 39 43 " clip-rule="nonzero"/></clipPath><clipPath id="094765ac8a"><path d="M 25.703125 -5.59375 L 95.75 22.101562 L 59.832031 112.957031 L -10.21875 85.261719 Z M 25.703125 -5.59375 " clip-rule="nonzero"/></clipPath><clipPath id="075183375b"><path d="M 25.703125 -5.59375 L 95.75 22.101562 L 59.832031 112.957031 L -10.21875 85.261719 Z M 25.703125 -5.59375 " clip-rule="nonzero"/></clipPath><clipPath id="40efd82a03"><path d="M 25.703125 -5.59375 L 95.75 22.101562 L 59.832031 112.957031 L -10.21875 85.261719 Z M 25.703125 -5.59375 " clip-rule="nonzero"/></clipPath><clipPath id="e535832726"><path d="M 15 5 L 88 5 L 88 52 L 15 52 Z M 15 5 " clip-rule="nonzero"/></clipPath><clipPath id="c1705c6d10"><path d="M 25.703125 -5.59375 L 95.75 22.101562 L 59.832031 112.957031 L -10.21875 85.261719 Z M 25.703125 -5.59375 " clip-rule="nonzero"/></clipPath><clipPath id="1d8b7bda98"><path d="M 25.703125 -5.59375 L 95.75 22.101562 L 59.832031 112.957031 L -10.21875 85.261719 Z M 25.703125 -5.59375 " clip-rule="nonzero"/></clipPath><clipPath id="bbda5861b5"><path d="M 25.703125 -5.59375 L 95.75 22.101562 L 59.832031 112.957031 L -10.21875 85.261719 Z M 25.703125 -5.59375 " clip-rule="nonzero"/></clipPath><clipPath id="d2cf299201"><path d="M 23 20 L 38 20 L 38 31 L 23 31 Z M 23 20 " clip-rule="nonzero"/></clipPath><clipPath id="89fc5cee09"><path d="M 25.703125 -5.59375 L 95.75 22.101562 L 59.832031 112.957031 L -10.21875 85.261719 Z M 25.703125 -5.59375 " clip-rule="nonzero"/></clipPath><clipPath id="87da8317ab"><path d="M 25.703125 -5.59375 L 95.75 22.101562 L 59.832031 112.957031 L -10.21875 85.261719 Z M 25.703125 -5.59375 " clip-rule="nonzero"/></clipPath><clipPath id="092b0cbba3"><path d="M 25.703125 -5.59375 L 95.75 22.101562 L 59.832031 112.957031 L -10.21875 85.261719 Z M 25.703125 -5.59375 " clip-rule="nonzero"/></clipPath><clipPath id="b318421286"><path d="M 44 18 L 55 18 L 55 27 L 44 27 Z M 44 18 " clip-rule="nonzero"/></clipPath><clipPath id="a67e703159"><path d="M 25.703125 -5.59375 L 95.75 22.101562 L 59.832031 112.957031 L -10.21875 85.261719 Z M 25.703125 -5.59375 " clip-rule="nonzero"/></clipPath><clipPath id="25af690d95"><path d="M 25.703125 -5.59375 L 95.75 22.101562 L 59.832031 112.957031 L -10.21875 85.261719 Z M 25.703125 -5.59375 " clip-rule="nonzero"/></clipPath><clipPath id="4e7c84ee92"><path d="M 25.703125 -5.59375 L 95.75 22.101562 L 59.832031 112.957031 L -10.21875 85.261719 Z M 25.703125 -5.59375 " clip-rule="nonzero"/></clipPath><clipPath id="0d4f709476"><path d="M 59 28 L 75 28 L 75 37 L 59 37 Z M 59 28 " clip-rule="nonzero"/></clipPath><clipPath id="35cd338d0f"><path d="M 25.703125 -5.59375 L 95.75 22.101562 L 59.832031 112.957031 L -10.21875 85.261719 Z M 25.703125 -5.59375 " clip-rule="nonzero"/></clipPath><clipPath id="af85ee3295"><path d="M 25.703125 -5.59375 L 95.75 22.101562 L 59.832031 112.957031 L -10.21875 85.261719 Z M 25.703125 -5.59375 " clip-rule="nonzero"/></clipPath><clipPath id="2921bdd461"><path d="M 25.703125 -5.59375 L 95.75 22.101562 L 59.832031 112.957031 L -10.21875 85.261719 Z M 25.703125 -5.59375 " clip-rule="nonzero"/></clipPath><clipPath id="e89daf5807"><path d="M 3 79 L 52 79 L 52 105 L 3 105 Z M 3 79 " clip-rule="nonzero"/></clipPath><clipPath id="7bbf42da3f"><path d="M 25.703125 -5.59375 L 95.75 22.101562 L 59.832031 112.957031 L -10.21875 85.261719 Z M 25.703125 -5.59375 " clip-rule="nonzero"/></clipPath><clipPath id="21fe7df9ad"><path d="M 25.703125 -5.59375 L 95.75 22.101562 L 59.832031 112.957031 L -10.21875 85.261719 Z M 25.703125 -5.59375 " clip-rule="nonzero"/></clipPath><clipPath id="d30bf585d8"><path d="M 25.703125 -5.59375 L 95.75 22.101562 L 59.832031 112.957031 L -10.21875 85.261719 Z M 25.703125 -5.59375 " clip-rule="nonzero"/></clipPath><clipPath id="44e9675873"><path d="M 0 76 L 54 76 L 54 107 L 0 107 Z M 0 76 " clip-rule="nonzero"/></clipPath><clipPath id="390357e62a"><path d="M 25.703125 -5.59375 L 95.75 22.101562 L 59.832031 112.957031 L -10.21875 85.261719 Z M 25.703125 -5.59375 " clip-rule="nonzero"/></clipPath><clipPath id="f5d8d9a2d5"><path d="M 25.703125 -5.59375 L 95.75 22.101562 L 59.832031 112.957031 L -10.21875 85.261719 Z M 25.703125 -5.59375 " clip-rule="nonzero"/></clipPath><clipPath id="70f3e056fc"><path d="M 25.703125 -5.59375 L 95.75 22.101562 L 59.832031 112.957031 L -10.21875 85.261719 Z M 25.703125 -5.59375 " clip-rule="nonzero"/></clipPath></defs><g clip-path="url(#d2968e7eca)"><g clip-path="url(#fbce2f6788)"><g clip-path="url(#7217f606a4)"><g clip-path="url(#3cc87bc436)"><path fill="#293a4c" d="M 3.460938 81.8125 C 2.300781 81.351562 1.621094 80.097656 1.917969 78.84375 L 14.535156 25.59375 C 14.769531 24.597656 15.578125 23.835938 16.585938 23.660156 C 21.894531 22.726562 26.398438 24.253906 29.703125 28.078125 C 34.957031 27.839844 39.230469 29.535156 42.441406 33.117188 C 47.597656 32.820312 51.890625 34.527344 55.238281 38.203125 C 60.558594 37.960938 64.855469 39.648438 68.035156 43.230469 C 73.703125 42.878906 77.921875 44.847656 80.597656 49.09375 C 81.101562 49.894531 81.121094 50.910156 80.652344 51.734375 L 58.003906 91.25 C 57.300781 92.476562 55.726562 92.90625 54.511719 92.199219 C 53.289062 91.496094 52.863281 89.933594 53.570312 88.707031 L 75.378906 50.644531 C 74.054688 49.191406 71.75 47.886719 67.226562 48.449219 C 66.316406 48.5625 65.414062 48.175781 64.867188 47.441406 C 62.441406 44.195312 59.113281 42.910156 54.386719 43.398438 C 53.515625 43.496094 52.660156 43.128906 52.117188 42.4375 C 49.476562 39.074219 46.144531 37.769531 41.636719 38.332031 C 40.730469 38.449219 39.835938 38.066406 39.285156 37.339844 C 36.8125 34.074219 33.480469 32.78125 28.808594 33.285156 C 27.894531 33.382812 27 32.984375 26.464844 32.238281 C 24.554688 29.59375 22.1875 28.386719 19.09375 28.523438 L 6.894531 80.023438 C 6.570312 81.398438 5.191406 82.25 3.816406 81.925781 C 3.695312 81.898438 3.574219 81.859375 3.460938 81.816406 Z M 3.460938 81.8125 " fill-opacity="1" fill-rule="nonzero"/></g></g></g></g><g clip-path="url(#a8401844af)"><g clip-path="url(#01c0459402)"><g clip-path="url(#f3e6ed6677)"><g clip-path="url(#afed720114)"><path fill="#293a4c" d="M 12.242188 85.285156 C 11.027344 84.804688 10.359375 83.460938 10.734375 82.183594 L 26.085938 30.015625 C 26.484375 28.65625 27.90625 27.878906 29.261719 28.277344 C 30.617188 28.691406 31.390625 30.097656 30.988281 31.453125 L 15.636719 83.621094 C 15.238281 84.980469 13.816406 85.757812 12.460938 85.359375 C 12.386719 85.335938 12.3125 85.3125 12.242188 85.28125 Z M 12.242188 85.285156 " fill-opacity="1" fill-rule="nonzero"/></g></g></g></g><g clip-path="url(#672a33d68a)"><g clip-path="url(#4b00ff9857)"><g clip-path="url(#b50e09108a)"><g clip-path="url(#1146601587)"><path fill="#293a4c" d="M 22 89.140625 C 20.722656 88.636719 20.066406 87.199219 20.539062 85.894531 L 38.921875 34.921875 C 39.398438 33.59375 40.867188 32.902344 42.195312 33.378906 C 43.523438 33.84375 44.210938 35.324219 43.730469 36.65625 L 25.347656 87.628906 C 24.867188 88.957031 23.402344 89.648438 22.074219 89.167969 C 22.050781 89.160156 22.027344 89.148438 22 89.140625 Z M 22 89.140625 " fill-opacity="1" fill-rule="nonzero"/></g></g></g></g><g clip-path="url(#53b5609df9)"><g clip-path="url(#8f36fb8b75)"><g clip-path="url(#9d48d55abd)"><g clip-path="url(#ce6dca07e6)"><path fill="#293a4c" d="M 31.746094 92.996094 C 31.71875 92.984375 31.695312 92.976562 31.671875 92.964844 C 30.375 92.40625 29.777344 90.898438 30.335938 89.601562 L 51.777344 39.839844 C 52.339844 38.539062 53.863281 37.921875 55.140625 38.5 C 56.4375 39.058594 57.035156 40.566406 56.472656 41.863281 L 35.03125 91.625 C 34.480469 92.898438 33.023438 93.5 31.742188 92.996094 Z M 31.746094 92.996094 " fill-opacity="1" fill-rule="nonzero"/></g></g></g></g><g clip-path="url(#c3de82df18)"><g clip-path="url(#094765ac8a)"><g clip-path="url(#075183375b)"><g clip-path="url(#40efd82a03)"><path fill="#293a4c" d="M 41.503906 96.851562 C 41.433594 96.824219 41.359375 96.792969 41.289062 96.757812 C 40.027344 96.121094 39.523438 94.582031 40.160156 93.316406 L 64.632812 44.753906 C 65.269531 43.492188 66.796875 42.996094 68.066406 43.621094 C 69.328125 44.253906 69.832031 45.796875 69.195312 47.058594 L 44.722656 95.621094 C 44.125 96.8125 42.71875 97.332031 41.503906 96.851562 Z M 41.503906 96.851562 " fill-opacity="1" fill-rule="nonzero"/></g></g></g></g><g clip-path="url(#e535832726)"><g clip-path="url(#c1705c6d10)"><g clip-path="url(#1d8b7bda98)"><g clip-path="url(#bbda5861b5)"><path fill="#293a4c" d="M 76.105469 51.070312 C 75.285156 50.746094 74.65625 50.007812 74.515625 49.074219 C 74.304688 47.675781 75.265625 46.371094 76.660156 46.15625 C 79.125 45.78125 81.582031 42.753906 82.136719 39.40625 C 82.503906 37.175781 82.304688 33.003906 76.796875 30.144531 C 75.730469 29.589844 75.195312 28.371094 75.503906 27.210938 C 76.527344 23.390625 74.820312 19.535156 71.539062 18.238281 C 69.523438 17.441406 67.238281 17.722656 65.265625 19.019531 C 64.691406 19.394531 63.992188 19.523438 63.320312 19.378906 C 62.65625 19.230469 62.066406 18.824219 61.703125 18.238281 C 61.023438 17.15625 60.082031 16.429688 58.714844 16.269531 C 57.777344 16.160156 56.984375 15.546875 56.636719 14.679688 C 55.925781 12.894531 54.609375 11.542969 52.933594 10.882812 C 49.976562 9.710938 46.492188 10.914062 44.464844 13.8125 C 44 14.472656 43.253906 14.875 42.445312 14.902344 C 41.644531 14.925781 40.871094 14.570312 40.371094 13.9375 C 38.894531 12.082031 36.679688 12.164062 34.992188 13.632812 C 34.160156 14.351562 32.960938 14.464844 32.011719 13.902344 C 31.757812 13.75 31.492188 13.621094 31.210938 13.511719 C 27.585938 12.078125 23.328125 14.214844 21.71875 18.277344 C 20.859375 20.453125 20.90625 22.851562 21.84375 24.863281 C 22.445312 26.140625 21.894531 27.667969 20.613281 28.269531 C 19.335938 28.871094 17.8125 28.316406 17.214844 27.039062 C 15.679688 23.757812 15.589844 19.878906 16.964844 16.398438 C 19.605469 9.71875 26.824219 6.285156 33.066406 8.734375 C 35.90625 7.050781 39.445312 6.992188 42.152344 8.71875 C 45.621094 5.496094 50.503906 4.410156 54.824219 6.117188 C 57.386719 7.132812 59.464844 9.007812 60.789062 11.472656 C 62.214844 11.890625 63.464844 12.636719 64.515625 13.636719 C 67.394531 12.410156 70.546875 12.332031 73.429688 13.472656 C 78.539062 15.492188 81.492188 20.90625 80.828125 26.570312 C 85.730469 29.789062 88.089844 34.785156 87.1875 40.242188 C 86.265625 45.789062 82.074219 50.511719 77.433594 51.21875 C 76.96875 51.292969 76.515625 51.230469 76.109375 51.070312 Z M 76.105469 51.070312 " fill-opacity="1" fill-rule="nonzero"/></g></g></g></g><g clip-path="url(#d2cf299201)"><g clip-path="url(#89fc5cee09)"><g clip-path="url(#87da8317ab)"><g clip-path="url(#092b0cbba3)"><path fill="#293a4c" d="M 24.675781 30.175781 C 23.429688 29.683594 22.765625 28.296875 23.191406 27 C 23.320312 26.59375 24.585938 22.984375 28.148438 21.304688 C 30.5 20.195312 33.171875 20.21875 36.097656 21.375 C 37.414062 21.894531 38.054688 23.382812 37.535156 24.699219 C 37.015625 26.011719 35.53125 26.660156 34.214844 26.140625 C 32.65625 25.523438 31.34375 25.453125 30.320312 25.9375 C 28.753906 26.671875 28.054688 28.566406 28.050781 28.585938 C 27.613281 29.929688 26.167969 30.667969 24.824219 30.230469 C 24.773438 30.214844 24.726562 30.195312 24.675781 30.175781 Z M 24.675781 30.175781 " fill-opacity="1" fill-rule="nonzero"/></g></g></g></g><g clip-path="url(#b318421286)"><g clip-path="url(#a67e703159)"><g clip-path="url(#25af690d95)"><g clip-path="url(#4e7c84ee92)"><path fill="#293a4c" d="M 50.882812 26.605469 C 50.21875 26.34375 49.667969 25.804688 49.414062 25.074219 C 48.832031 23.417969 47.410156 23.300781 46.992188 23.304688 C 45.59375 23.324219 44.421875 22.21875 44.382812 20.824219 C 44.34375 19.429688 45.398438 18.261719 46.789062 18.191406 C 48.703125 18.09375 52.71875 19.054688 54.238281 23.371094 C 54.703125 24.707031 54.003906 26.167969 52.671875 26.640625 C 52.070312 26.851562 51.4375 26.824219 50.886719 26.605469 Z M 50.882812 26.605469 " fill-opacity="1" fill-rule="nonzero"/></g></g></g></g><g clip-path="url(#0d4f709476)"><g clip-path="url(#35cd338d0f)"><g clip-path="url(#af85ee3295)"><g clip-path="url(#2921bdd461)"><path fill="#293a4c" d="M 61.605469 35.851562 C 61.273438 35.71875 60.96875 35.515625 60.707031 35.246094 C 59.738281 34.230469 59.757812 32.636719 60.757812 31.652344 C 62.832031 29.617188 68.1875 26.898438 73.605469 31.160156 C 74.714844 32.03125 74.90625 33.640625 74.035156 34.753906 C 73.160156 35.867188 71.550781 36.066406 70.441406 35.1875 C 67.34375 32.761719 64.789062 34.878906 64.3125 35.328125 C 63.5625 36.03125 62.5 36.203125 61.605469 35.847656 Z M 61.605469 35.851562 " fill-opacity="1" fill-rule="nonzero"/></g></g></g></g><g clip-path="url(#e89daf5807)"><g clip-path="url(#7bbf42da3f)"><g clip-path="url(#21fe7df9ad)"><g clip-path="url(#d30bf585d8)"><path fill="#293a4c" d="M 51.222656 97.941406 L 48.640625 102.4375 C 47.796875 103.90625 46.003906 104.535156 44.429688 103.914062 L 5.277344 88.433594 C 3.703125 87.8125 2.828125 86.128906 3.214844 84.476562 L 4.40625 79.433594 Z M 51.222656 97.941406 " fill-opacity="1" fill-rule="nonzero"/></g></g></g></g><g clip-path="url(#44e9675873)"><g clip-path="url(#390357e62a)"><g clip-path="url(#f5d8d9a2d5)"><g clip-path="url(#70f3e056fc)"><path fill="#293a4c" d="M 43.488281 106.292969 L 4.335938 90.816406 C 1.601562 89.734375 0.0507812 86.757812 0.726562 83.890625 L 1.917969 78.847656 C 2.089844 78.121094 2.566406 77.507812 3.226562 77.164062 C 3.882812 76.820312 4.660156 76.777344 5.351562 77.050781 L 52.164062 95.558594 C 52.855469 95.832031 53.394531 96.390625 53.636719 97.09375 C 53.882812 97.796875 53.8125 98.570312 53.441406 99.214844 L 50.859375 103.710938 C 49.394531 106.265625 46.226562 107.378906 43.492188 106.296875 Z M 6.214844 82.902344 L 5.703125 85.0625 C 5.609375 85.472656 5.828125 85.898438 6.21875 86.050781 L 45.375 101.53125 C 45.765625 101.6875 46.214844 101.527344 46.425781 101.160156 L 47.53125 99.234375 Z M 6.214844 82.902344 " fill-opacity="1" fill-rule="nonzero"/></g></g></g></g></svg>