<svg xmlns="http://www.w3.org/2000/svg" xmlns:xlink="http://www.w3.org/1999/xlink" width="223" zoomAndPan="magnify" viewBox="0 0 167.25 167.249997" height="223" preserveAspectRatio="xMidYMid meet" version="1.0"><defs><clipPath id="94eb1e1416"><path d="M 0 61 L 166.503906 61 L 166.503906 166.503906 L 0 166.503906 Z M 0 61 " clip-rule="nonzero"/></clipPath><clipPath id="45c91f6543"><path d="M 37 61 L 46 61 L 46 166.503906 L 37 166.503906 Z M 37 61 " clip-rule="nonzero"/></clipPath></defs><g clip-path="url(#94eb1e1416)"><path fill="#293a4c" d="M 151.136719 69.210938 L 137.261719 61.058594 L 43.730469 61.058594 L 43.4375 61.585938 C 44.839844 62.285156 45.804688 63.746094 45.804688 65.441406 L 45.804688 69.824219 L 153.359375 69.824219 C 152.597656 69.824219 151.839844 69.617188 151.136719 69.210938 Z M 162.121094 101.171875 C 164.546875 101.171875 166.503906 99.214844 166.503906 96.789062 L 166.503906 74.207031 C 166.503906 67.367188 161.273438 61.761719 154.613281 61.117188 C 154.207031 61.085938 153.765625 61.058594 153.359375 61.058594 L 13.144531 61.058594 C 10.546875 61.058594 8.121094 61.816406 6.074219 63.132812 C 2.425781 65.46875 0 69.558594 0 74.207031 L 0 96.789062 C 0 99.214844 1.957031 101.171875 4.382812 101.171875 C 11.625 101.171875 17.527344 107.074219 17.527344 114.316406 C 17.527344 121.5625 11.625 127.464844 4.382812 127.464844 C 1.957031 127.464844 0 129.421875 0 131.847656 L 0 154.402344 C 0 161.644531 5.902344 167.546875 13.144531 167.546875 L 153.359375 167.546875 C 160.601562 167.546875 166.503906 161.644531 166.503906 154.402344 L 166.503906 131.847656 C 166.503906 129.421875 164.546875 127.464844 162.121094 127.464844 C 154.878906 127.464844 148.976562 121.5625 148.976562 114.316406 C 148.976562 107.074219 154.878906 101.171875 162.121094 101.171875 Z M 157.738281 135.789062 L 157.738281 154.402344 C 157.738281 156.824219 155.78125 158.785156 153.359375 158.785156 L 13.144531 158.785156 C 10.71875 158.785156 8.761719 156.824219 8.761719 154.402344 L 8.761719 135.789062 C 18.753906 133.746094 26.289062 124.894531 26.289062 114.316406 C 26.289062 103.742188 18.753906 94.890625 8.761719 92.84375 L 8.761719 74.207031 C 8.761719 71.78125 10.71875 69.824219 13.144531 69.824219 L 153.359375 69.824219 C 155.78125 69.824219 157.738281 71.78125 157.738281 74.207031 L 157.738281 92.84375 C 147.75 94.890625 140.214844 103.742188 140.214844 114.316406 C 140.214844 124.894531 147.75 133.746094 157.738281 135.789062 Z M 157.738281 135.789062 " fill-opacity="1" fill-rule="nonzero"/></g><path fill="#293a4c" d="M 9.3125 70.710938 C 8.589844 70.710938 7.859375 70.53125 7.1875 70.160156 C 5.066406 68.988281 4.308594 66.316406 5.484375 64.203125 L 14.425781 48.109375 C 15.601562 45.988281 18.273438 45.234375 20.378906 46.40625 C 22.753906 47.71875 25.492188 48.027344 28.105469 47.28125 C 30.71875 46.53125 32.878906 44.816406 34.1875 42.449219 C 36.90625 37.5625 35.128906 31.367188 30.238281 28.625 C 28.128906 27.449219 27.375 24.789062 28.546875 22.679688 L 36.664062 8.042969 C 40.3125 1.46875 48.628906 -0.914062 55.199219 2.738281 L 155.574219 61.664062 C 157.660156 62.890625 158.359375 65.574219 157.136719 67.664062 C 155.910156 69.753906 153.226562 70.441406 151.136719 69.222656 L 50.855469 10.347656 C 49.8125 9.761719 48.496094 9.613281 47.25 9.976562 C 45.996094 10.332031 44.960938 11.15625 44.332031 12.292969 L 38.078125 23.550781 C 44.390625 29.34375 46.175781 38.917969 41.847656 46.695312 C 39.410156 51.105469 35.390625 54.308594 30.527344 55.703125 C 27.097656 56.691406 23.550781 56.691406 20.207031 55.75 L 13.148438 68.457031 C 12.347656 69.898438 10.851562 70.710938 9.316406 70.710938 Z M 9.3125 70.710938 " fill-opacity="1" fill-rule="nonzero"/><path fill="#293a4c" d="M 63.914062 81.625 L 80.300781 81.625 L 80.300781 113.441406 L 63.914062 113.441406 Z M 63.914062 81.625 " fill-opacity="1" fill-rule="nonzero"/><path fill="#293a4c" d="M 89.066406 81.625 L 126.191406 81.625 L 126.191406 113.441406 L 89.066406 113.441406 Z M 89.066406 81.625 " fill-opacity="1" fill-rule="nonzero"/><path fill="#293a4c" d="M 126.191406 77.214844 L 89.066406 77.214844 L 89.066406 85.980469 L 121.808594 85.980469 L 121.808594 109.058594 L 89.066406 109.058594 L 89.066406 117.824219 L 126.191406 117.824219 C 128.617188 117.824219 130.574219 115.835938 130.574219 113.441406 L 130.574219 81.597656 C 130.574219 79.203125 128.617188 77.214844 126.191406 77.214844 Z M 59.53125 81.597656 L 59.53125 113.441406 C 59.53125 115.835938 61.488281 117.824219 63.914062 117.824219 L 80.300781 117.824219 L 80.300781 109.058594 L 68.296875 109.058594 L 68.296875 85.980469 L 80.300781 85.980469 L 80.300781 77.214844 L 63.914062 77.214844 C 61.488281 77.214844 59.53125 79.203125 59.53125 81.597656 Z M 59.53125 81.597656 " fill-opacity="1" fill-rule="nonzero"/><path fill="#293a4c" d="M 126.199219 134.570312 L 63.921875 134.570312 C 61.503906 134.570312 59.539062 132.605469 59.539062 130.1875 C 59.539062 127.769531 61.503906 125.804688 63.921875 125.804688 L 126.199219 125.804688 C 128.617188 125.804688 130.578125 127.769531 130.578125 130.1875 C 130.578125 132.605469 128.617188 134.570312 126.199219 134.570312 Z M 126.199219 134.570312 " fill-opacity="1" fill-rule="nonzero"/><path fill="#293a4c" d="M 126.199219 151.324219 L 63.921875 151.324219 C 61.503906 151.324219 59.539062 149.363281 59.539062 146.941406 C 59.539062 144.523438 61.503906 142.558594 63.921875 142.558594 L 126.199219 142.558594 C 128.617188 142.558594 130.578125 144.523438 130.578125 146.941406 C 130.578125 149.363281 128.617188 151.324219 126.199219 151.324219 Z M 126.199219 151.324219 " fill-opacity="1" fill-rule="nonzero"/><g clip-path="url(#45c91f6543)"><path fill="#293a4c" d="M 43.4375 61.585938 C 42.824219 61.234375 42.152344 61.058594 41.421875 61.058594 C 38.996094 61.058594 37.039062 63.015625 37.039062 65.441406 L 37.039062 80.046875 C 37.039062 82.472656 38.996094 84.429688 41.421875 84.429688 C 43.847656 84.429688 45.804688 82.472656 45.804688 80.046875 L 45.804688 65.441406 C 45.804688 63.746094 44.839844 62.285156 43.4375 61.585938 Z M 41.421875 90.273438 C 38.996094 90.273438 37.039062 92.230469 37.039062 94.65625 L 37.039062 109.261719 C 37.039062 111.6875 38.996094 113.644531 41.421875 113.644531 C 43.847656 113.644531 45.804688 111.6875 45.804688 109.261719 L 45.804688 94.65625 C 45.804688 92.230469 43.847656 90.273438 41.421875 90.273438 Z M 41.421875 119.488281 C 38.996094 119.488281 37.039062 121.445312 37.039062 123.871094 L 37.039062 138.480469 C 37.039062 140.902344 38.996094 142.859375 41.421875 142.859375 C 43.847656 142.859375 45.804688 140.902344 45.804688 138.480469 L 45.804688 123.871094 C 45.804688 121.445312 43.847656 119.488281 41.421875 119.488281 Z M 41.421875 148.703125 C 38.996094 148.703125 37.039062 150.660156 37.039062 153.085938 L 37.039062 163.164062 C 37.039062 165.589844 38.996094 167.546875 41.421875 167.546875 C 43.847656 167.546875 45.804688 165.589844 45.804688 163.164062 L 45.804688 153.085938 C 45.804688 150.660156 43.847656 148.703125 41.421875 148.703125 Z M 41.421875 148.703125 " fill-opacity="1" fill-rule="nonzero"/></g><path fill="#293a4c" d="M 46.355469 69.824219 C 45.648438 69.824219 44.933594 69.652344 44.265625 69.292969 C 42.136719 68.132812 41.351562 65.472656 42.503906 63.347656 L 59.710938 31.679688 C 60.277344 30.636719 61.242188 29.867188 62.390625 29.550781 C 63.542969 29.226562 64.761719 29.390625 65.785156 29.996094 L 119.507812 61.667969 C 121.59375 62.894531 122.285156 65.582031 121.058594 67.667969 C 119.828125 69.757812 117.140625 70.449219 115.058594 69.214844 L 65.242188 39.851562 L 50.207031 67.53125 C 49.414062 68.996094 47.90625 69.824219 46.355469 69.824219 Z M 46.355469 69.824219 " fill-opacity="1" fill-rule="nonzero"/><path fill="#293a4c" d="M 66.746094 69.824219 C 65.996094 69.824219 65.242188 69.636719 64.550781 69.234375 C 62.457031 68.019531 61.742188 65.339844 62.957031 63.242188 L 75.808594 41.039062 C 77.023438 38.945312 79.703125 38.234375 81.796875 39.445312 C 83.890625 40.65625 84.605469 43.339844 83.390625 45.433594 L 70.539062 67.636719 C 69.726562 69.039062 68.257812 69.824219 66.746094 69.824219 Z M 66.746094 69.824219 " fill-opacity="1" fill-rule="nonzero"/></svg>