<svg xmlns="http://www.w3.org/2000/svg" xmlns:xlink="http://www.w3.org/1999/xlink" width="223" zoomAndPan="magnify" viewBox="0 0 167.25 167.249997" height="223" preserveAspectRatio="xMidYMid meet" version="1.0"><defs><clipPath id="afcb3dda39"><path d="M 134 31 L 145 31 L 145 37 L 134 37 Z M 134 31 " clip-rule="nonzero"/></clipPath><clipPath id="e8a9c3d013"><path d="M 5.238281 23.863281 L 156.464844 5.679688 L 172.066406 135.40625 L 20.839844 153.59375 Z M 5.238281 23.863281 " clip-rule="nonzero"/></clipPath><clipPath id="5751f984b4"><path d="M 5.238281 23.863281 L 156.464844 5.679688 L 172.066406 135.40625 L 20.839844 153.59375 Z M 5.238281 23.863281 " clip-rule="nonzero"/></clipPath><clipPath id="cb7e808fd9"><path d="M 6 21 L 160 21 L 160 127 L 6 127 Z M 6 21 " clip-rule="nonzero"/></clipPath><clipPath id="233f545fb5"><path d="M 5.238281 23.863281 L 156.464844 5.679688 L 172.066406 135.40625 L 20.839844 153.59375 Z M 5.238281 23.863281 " clip-rule="nonzero"/></clipPath><clipPath id="772d1e1408"><path d="M 5.238281 23.863281 L 156.464844 5.679688 L 172.066406 135.40625 L 20.839844 153.59375 Z M 5.238281 23.863281 " clip-rule="nonzero"/></clipPath><clipPath id="fc94a3ec71"><path d="M 5.3125 23.855469 L 156.070312 5.726562 L 169.121094 114.265625 L 18.367188 132.394531 Z M 5.3125 23.855469 " clip-rule="nonzero"/></clipPath><clipPath id="cd398b7311"><path d="M 65 128 L 83 128 L 83 147 L 65 147 Z M 65 128 " clip-rule="nonzero"/></clipPath><clipPath id="c998815af9"><path d="M 5.238281 23.863281 L 156.464844 5.679688 L 172.066406 135.40625 L 20.839844 153.59375 Z M 5.238281 23.863281 " clip-rule="nonzero"/></clipPath><clipPath id="a03e33ea0f"><path d="M 5.238281 23.863281 L 156.464844 5.679688 L 172.066406 135.40625 L 20.839844 153.59375 Z M 5.238281 23.863281 " clip-rule="nonzero"/></clipPath><clipPath id="3bb54a3394"><path d="M 63.652344 129.710938 L 81.820312 127.527344 L 84.011719 145.773438 L 65.847656 147.957031 Z M 63.652344 129.710938 " clip-rule="nonzero"/></clipPath><clipPath id="3755ca0662"><path d="M 124 121 L 143 121 L 143 140 L 124 140 Z M 124 121 " clip-rule="nonzero"/></clipPath><clipPath id="a8db2f962e"><path d="M 5.238281 23.863281 L 156.464844 5.679688 L 172.066406 135.40625 L 20.839844 153.59375 Z M 5.238281 23.863281 " clip-rule="nonzero"/></clipPath><clipPath id="6e1de727b8"><path d="M 5.238281 23.863281 L 156.464844 5.679688 L 172.066406 135.40625 L 20.839844 153.59375 Z M 5.238281 23.863281 " clip-rule="nonzero"/></clipPath><clipPath id="9e372d483c"><path d="M 122.691406 122.613281 L 141.3125 120.375 L 143.503906 138.617188 L 124.886719 140.855469 Z M 122.691406 122.613281 " clip-rule="nonzero"/></clipPath></defs><g clip-path="url(#afcb3dda39)"><g clip-path="url(#e8a9c3d013)"><g clip-path="url(#5751f984b4)"><path fill="#da9e51" d="M 136.617188 36.535156 C 138.675781 36.285156 140.734375 36.039062 142.792969 35.789062 C 145.722656 35.4375 145.175781 30.898438 142.25 31.25 C 140.1875 31.496094 138.132812 31.746094 136.070312 31.992188 C 133.144531 32.34375 133.691406 36.886719 136.617188 36.535156 " fill-opacity="1" fill-rule="nonzero"/></g></g></g><g clip-path="url(#cb7e808fd9)"><g clip-path="url(#233f545fb5)"><g clip-path="url(#772d1e1408)"><g clip-path="url(#fc94a3ec71)"><path fill="#da9e51" d="M 149.300781 87.472656 C 141.425781 89.417969 133.550781 91.363281 125.671875 93.308594 C 124.679688 85.046875 123.6875 76.785156 122.695312 68.523438 C 130.179688 67.625 137.664062 66.722656 145.148438 65.824219 C 147.246094 65.570312 149.347656 65.320312 151.445312 65.066406 C 150.726562 72.535156 150.015625 80.003906 149.300781 87.472656 Z M 60.796875 109.335938 C 58.101562 98.539062 55.402344 87.738281 52.703125 76.941406 C 58.628906 76.226562 64.554688 75.515625 70.480469 74.804688 C 73.410156 74.449219 72.863281 69.910156 69.933594 70.261719 C 63.820312 70.996094 57.703125 71.734375 51.582031 72.46875 C 49.507812 64.164062 47.433594 55.859375 45.355469 47.554688 C 45.351562 47.539062 45.351562 47.523438 45.347656 47.507812 C 56.773438 46.136719 68.199219 44.761719 79.625 43.386719 C 80.640625 51.835938 81.65625 60.28125 82.671875 68.730469 C 80.691406 68.96875 78.710938 69.207031 76.730469 69.445312 C 73.800781 69.796875 74.347656 74.339844 77.277344 73.984375 C 79.257812 73.746094 81.238281 73.507812 83.21875 73.269531 C 84.40625 83.152344 85.59375 93.035156 86.785156 102.917969 C 86.523438 102.980469 86.265625 103.042969 86.007812 103.105469 C 77.605469 105.183594 69.203125 107.257812 60.796875 109.335938 Z M 118.152344 69.070312 C 119.167969 77.519531 120.183594 85.964844 121.199219 94.414062 C 111.21875 96.878906 101.238281 99.34375 91.257812 101.808594 C 90.089844 92.113281 88.925781 82.421875 87.761719 72.726562 C 97.890625 71.507812 108.019531 70.289062 118.152344 69.070312 Z M 114.558594 39.1875 C 115.574219 47.632812 116.589844 56.082031 117.605469 64.527344 C 107.476562 65.746094 97.34375 66.964844 87.214844 68.183594 C 86.199219 59.734375 85.183594 51.289062 84.167969 42.839844 C 92.90625 41.789062 101.648438 40.738281 110.386719 39.6875 C 111.777344 39.519531 113.167969 39.351562 114.558594 39.1875 Z M 26.882812 31.355469 C 24.632812 31.628906 22.386719 31.898438 20.136719 32.167969 C 18.085938 32.414062 16.039062 32.660156 13.988281 32.90625 C 11.859375 33.164062 10.9375 32.148438 10.6875 30.046875 C 10.425781 27.875 12.550781 27.65625 14.089844 27.472656 C 16.335938 27.199219 18.585938 26.929688 20.835938 26.660156 C 22.882812 26.414062 24.933594 26.167969 26.984375 25.921875 C 29.113281 25.664062 30.035156 26.679688 30.285156 28.78125 C 30.402344 30.964844 28.496094 31.164062 26.882812 31.355469 Z M 156.652344 29.515625 C 154.082031 29.824219 151.515625 30.136719 148.945312 30.445312 C 146.015625 30.796875 146.5625 35.335938 149.492188 34.984375 C 151.121094 34.789062 152.75 34.59375 154.378906 34.398438 C 153.550781 43.066406 152.71875 51.738281 151.890625 60.40625 C 141.976562 61.597656 132.0625 62.789062 122.148438 63.984375 C 121.132812 55.535156 120.117188 47.085938 119.101562 38.640625 C 122.4375 38.238281 125.773438 37.835938 129.109375 37.4375 C 132.039062 37.085938 131.492188 32.542969 128.5625 32.894531 C 106.027344 35.605469 83.496094 38.3125 60.964844 41.023438 C 55.289062 41.707031 49.613281 42.390625 43.9375 43.070312 C 42.628906 37.917969 41.316406 32.765625 40.003906 27.613281 C 39.699219 26.402344 38.820312 25.449219 37.460938 25.613281 C 36.410156 25.742188 35.363281 25.867188 34.3125 25.992188 C 33.253906 23.015625 30.832031 21.097656 27.21875 21.285156 C 25.058594 21.398438 22.875 21.808594 20.730469 22.066406 C 17.964844 22.398438 15.199219 22.730469 12.429688 23.0625 C 8.460938 23.539062 5.933594 26.628906 6.144531 30.59375 C 6.367188 34.832031 9.507812 37.765625 13.753906 37.542969 C 15.910156 37.429688 18.09375 37.019531 20.238281 36.761719 C 23.007812 36.429688 25.777344 36.097656 28.542969 35.765625 C 31.691406 35.386719 33.921875 33.363281 34.609375 30.5625 C 35.085938 30.507812 35.558594 30.449219 36.035156 30.394531 C 41.285156 51.042969 46.535156 71.691406 51.785156 92.339844 C 54.53125 103.132812 57.277344 113.929688 60.023438 124.726562 C 60.328125 125.929688 61.207031 126.886719 62.566406 126.722656 C 85.25 123.996094 107.933594 121.265625 130.617188 118.539062 C 134.554688 118.066406 138.488281 117.59375 142.421875 117.121094 C 145.351562 116.765625 144.804688 112.226562 141.878906 112.578125 C 119.191406 115.304688 96.507812 118.035156 73.824219 120.761719 C 70.546875 121.15625 67.269531 121.550781 63.992188 121.945312 C 63.300781 119.207031 62.601562 116.472656 61.90625 113.738281 C 82.789062 108.578125 103.675781 103.417969 124.558594 98.261719 C 133.601562 96.027344 142.648438 93.792969 151.691406 91.558594 C 152.652344 91.320312 153.578125 90.722656 153.679688 89.628906 C 155.519531 70.460938 157.351562 51.292969 159.1875 32.128906 C 159.328125 30.660156 158.1875 29.332031 156.652344 29.515625 " fill-opacity="1" fill-rule="nonzero"/></g></g></g></g><g clip-path="url(#cd398b7311)"><g clip-path="url(#c998815af9)"><g clip-path="url(#a03e33ea0f)"><g clip-path="url(#3bb54a3394)"><path fill="#da9e51" d="M 69.574219 138.445312 C 68.640625 132.8125 77.410156 131.785156 78.339844 137.390625 C 78.765625 143.082031 70.507812 144.074219 69.574219 138.445312 Z M 82.746094 136.199219 C 81.679688 131.585938 77.699219 128.632812 72.882812 128.992188 C 67.851562 129.371094 64.679688 134.292969 65.03125 138.992188 C 65.410156 144.023438 70.332031 147.195312 75.03125 146.84375 C 79.839844 146.480469 82.949219 141.96875 82.90625 137.46875 C 82.921875 137.273438 82.917969 137.066406 82.882812 136.84375 C 82.863281 136.605469 82.816406 136.390625 82.746094 136.199219 " fill-opacity="1" fill-rule="nonzero"/></g></g></g></g><g clip-path="url(#3755ca0662)"><g clip-path="url(#a8db2f962e)"><g clip-path="url(#6e1de727b8)"><g clip-path="url(#9e372d483c)"><path fill="#da9e51" d="M 128.800781 131.324219 C 127.867188 125.691406 136.636719 124.664062 137.570312 130.269531 C 137.996094 135.957031 129.738281 136.949219 128.800781 131.324219 Z M 141.972656 129.078125 C 140.910156 124.464844 136.929688 121.511719 132.113281 121.871094 C 127.082031 122.25 123.910156 127.171875 124.261719 131.867188 C 124.636719 136.898438 129.5625 140.074219 134.257812 139.71875 C 139.070312 139.359375 142.175781 134.847656 142.136719 130.347656 C 142.152344 130.152344 142.148438 129.945312 142.109375 129.722656 C 142.09375 129.484375 142.042969 129.269531 141.972656 129.078125 " fill-opacity="1" fill-rule="nonzero"/></g></g></g></g></svg>