<svg xmlns="http://www.w3.org/2000/svg" xmlns:xlink="http://www.w3.org/1999/xlink" width="2134" zoomAndPan="magnify" viewBox="0 0 1600.5 451.499982" height="602" preserveAspectRatio="xMidYMid meet" version="1.0"><defs><g/><clipPath id="8360c82b69"><path d="M 7 1 L 1599.363281 1 L 1599.363281 451 L 7 451 Z M 7 1 " clip-rule="nonzero"/></clipPath><clipPath id="69cc2dae77"><path d="M 0.355469 1 L 449 1 L 449 450 L 0.355469 450 Z M 0.355469 1 " clip-rule="nonzero"/></clipPath><clipPath id="039bc89be0"><path d="M 463 1 L 1592.363281 1 L 1592.363281 450 L 463 450 Z M 463 1 " clip-rule="nonzero"/></clipPath><clipPath id="ce1ccf7333"><rect x="0" width="1130" y="0" height="449"/></clipPath><clipPath id="8b95f36b2b"><rect x="0" width="1593" y="0" height="450"/></clipPath></defs><g clip-path="url(#8360c82b69)"><g transform="matrix(1, 0, 0, 1, 7, 1)"><g clip-path="url(#8b95f36b2b)"><g clip-path="url(#69cc2dae77)"><path fill="#293a4c" d="M 224.34375 449.371094 C 100.835938 449.371094 0.355469 348.890625 0.355469 225.382812 C 0.355469 101.875 100.835938 1.394531 224.34375 1.394531 C 347.851562 1.394531 448.332031 101.875 448.332031 225.382812 C 448.332031 348.890625 347.851562 449.371094 224.34375 449.371094 Z M 224.34375 24.972656 C 113.832031 24.972656 23.933594 114.875 23.933594 225.382812 C 23.933594 335.890625 113.832031 425.792969 224.34375 425.792969 C 334.851562 425.792969 424.753906 335.890625 424.753906 225.382812 C 424.753906 114.875 334.851562 24.972656 224.34375 24.972656 Z M 224.34375 24.972656 " fill-opacity="1" fill-rule="nonzero"/></g><path fill="#293a4c" d="M 224.34375 410.074219 C 122.503906 410.074219 39.648438 327.222656 39.648438 225.382812 C 39.648438 123.542969 122.503906 40.691406 224.34375 40.691406 C 326.183594 40.691406 409.035156 123.542969 409.035156 225.382812 C 409.035156 327.222656 326.183594 410.074219 224.34375 410.074219 Z M 224.34375 64.269531 C 135.5 64.269531 63.226562 136.542969 63.226562 225.382812 C 63.226562 314.222656 135.5 386.496094 224.34375 386.496094 C 313.183594 386.496094 385.457031 314.222656 385.457031 225.382812 C 385.457031 136.542969 313.183594 64.269531 224.34375 64.269531 Z M 224.34375 64.269531 " fill-opacity="1" fill-rule="nonzero"/><path fill="#293a4c" d="M 170.019531 225.382812 C 170.019531 226.703125 169.953125 228.019531 169.824219 229.335938 C 169.695312 230.648438 169.503906 231.953125 169.246094 233.246094 C 168.988281 234.542969 168.667969 235.820312 168.285156 237.085938 C 167.898438 238.347656 167.457031 239.589844 166.949219 240.808594 C 166.445312 242.027344 165.882812 243.222656 165.257812 244.386719 C 164.636719 245.550781 163.960938 246.679688 163.226562 247.777344 C 162.492188 248.875 161.707031 249.933594 160.871094 250.957031 C 160.03125 251.976562 159.144531 252.953125 158.210938 253.886719 C 157.277344 254.820312 156.300781 255.707031 155.28125 256.542969 C 154.261719 257.378906 153.203125 258.167969 152.105469 258.898438 C 151.007812 259.632812 149.875 260.3125 148.710938 260.933594 C 147.546875 261.554688 146.355469 262.121094 145.136719 262.625 C 143.914062 263.128906 142.675781 263.574219 141.410156 263.957031 C 140.148438 264.339844 138.867188 264.660156 137.574219 264.917969 C 136.277344 265.175781 134.972656 265.371094 133.660156 265.5 C 132.347656 265.628906 131.03125 265.691406 129.710938 265.691406 C 128.390625 265.691406 127.070312 265.628906 125.757812 265.5 C 124.445312 265.371094 123.140625 265.175781 121.84375 264.917969 C 120.550781 264.660156 119.269531 264.339844 118.007812 263.957031 C 116.746094 263.574219 115.503906 263.128906 114.28125 262.625 C 113.0625 262.121094 111.871094 261.554688 110.707031 260.933594 C 109.542969 260.3125 108.410156 259.632812 107.3125 258.898438 C 106.214844 258.167969 105.15625 257.378906 104.136719 256.542969 C 103.117188 255.707031 102.140625 254.820312 101.207031 253.886719 C 100.273438 252.953125 99.386719 251.976562 98.550781 250.957031 C 97.710938 249.933594 96.925781 248.875 96.191406 247.777344 C 95.460938 246.679688 94.78125 245.550781 94.160156 244.386719 C 93.535156 243.222656 92.972656 242.027344 92.46875 240.808594 C 91.960938 239.589844 91.519531 238.347656 91.136719 237.085938 C 90.75 235.820312 90.429688 234.542969 90.171875 233.246094 C 89.917969 231.953125 89.722656 230.648438 89.59375 229.335938 C 89.464844 228.019531 89.398438 226.703125 89.398438 225.382812 C 89.398438 224.0625 89.464844 222.746094 89.59375 221.433594 C 89.722656 220.117188 89.917969 218.8125 90.171875 217.519531 C 90.429688 216.222656 90.75 214.945312 91.136719 213.683594 C 91.519531 212.417969 91.960938 211.175781 92.46875 209.957031 C 92.972656 208.738281 93.535156 207.546875 94.160156 206.382812 C 94.78125 205.21875 95.460938 204.085938 96.191406 202.988281 C 96.925781 201.890625 97.710938 200.832031 98.550781 199.8125 C 99.386719 198.789062 100.273438 197.8125 101.207031 196.878906 C 102.140625 195.945312 103.117188 195.0625 104.136719 194.222656 C 105.15625 193.386719 106.214844 192.601562 107.3125 191.867188 C 108.410156 191.132812 109.542969 190.457031 110.707031 189.832031 C 111.871094 189.210938 113.0625 188.648438 114.28125 188.140625 C 115.503906 187.636719 116.746094 187.191406 118.007812 186.808594 C 119.269531 186.425781 120.550781 186.105469 121.84375 185.847656 C 123.140625 185.589844 124.445312 185.398438 125.757812 185.265625 C 127.070312 185.136719 128.390625 185.074219 129.710938 185.074219 C 131.03125 185.074219 132.347656 185.136719 133.660156 185.265625 C 134.972656 185.398438 136.277344 185.589844 137.574219 185.847656 C 138.867188 186.105469 140.148438 186.425781 141.410156 186.808594 C 142.675781 187.191406 143.914062 187.636719 145.136719 188.140625 C 146.355469 188.648438 147.546875 189.210938 148.710938 189.832031 C 149.875 190.457031 151.007812 191.132812 152.105469 191.867188 C 153.203125 192.601562 154.261719 193.386719 155.28125 194.222656 C 156.300781 195.0625 157.277344 195.945312 158.210938 196.878906 C 159.144531 197.8125 160.03125 198.789062 160.871094 199.8125 C 161.707031 200.832031 162.492188 201.890625 163.226562 202.988281 C 163.960938 204.085938 164.636719 205.21875 165.257812 206.382812 C 165.882812 207.546875 166.445312 208.738281 166.949219 209.957031 C 167.457031 211.175781 167.898438 212.417969 168.285156 213.683594 C 168.667969 214.945312 168.988281 216.222656 169.246094 217.519531 C 169.503906 218.8125 169.695312 220.117188 169.824219 221.433594 C 169.953125 222.746094 170.019531 224.0625 170.019531 225.382812 Z M 170.019531 225.382812 " fill-opacity="1" fill-rule="nonzero"/><path fill="#293a4c" d="M 129.703125 277.480469 C 100.976562 277.480469 77.601562 254.109375 77.601562 225.382812 C 77.601562 196.65625 100.976562 173.285156 129.703125 173.285156 C 158.425781 173.285156 181.800781 196.65625 181.800781 225.382812 C 181.800781 254.109375 158.425781 277.480469 129.703125 277.480469 Z M 129.703125 196.863281 C 113.976562 196.863281 101.179688 209.65625 101.179688 225.382812 C 101.179688 241.109375 113.976562 253.90625 129.703125 253.90625 C 145.425781 253.90625 158.222656 241.109375 158.222656 225.382812 C 158.222656 209.65625 145.425781 196.863281 129.703125 196.863281 Z M 129.703125 196.863281 " fill-opacity="1" fill-rule="nonzero"/><path fill="#293a4c" d="M 359.285156 225.382812 C 359.285156 226.703125 359.21875 228.019531 359.089844 229.335938 C 358.960938 230.648438 358.769531 231.953125 358.511719 233.246094 C 358.253906 234.542969 357.933594 235.820312 357.550781 237.085938 C 357.167969 238.347656 356.722656 239.589844 356.214844 240.808594 C 355.710938 242.027344 355.148438 243.222656 354.527344 244.386719 C 353.902344 245.550781 353.226562 246.679688 352.492188 247.777344 C 351.757812 248.875 350.972656 249.933594 350.136719 250.957031 C 349.296875 251.976562 348.414062 252.953125 347.480469 253.886719 C 346.546875 254.820312 345.566406 255.707031 344.546875 256.542969 C 343.527344 257.378906 342.46875 258.167969 341.371094 258.898438 C 340.273438 259.632812 339.140625 260.3125 337.976562 260.933594 C 336.8125 261.554688 335.621094 262.121094 334.402344 262.625 C 333.179688 263.128906 331.941406 263.574219 330.675781 263.957031 C 329.414062 264.339844 328.132812 264.660156 326.839844 264.917969 C 325.542969 265.175781 324.238281 265.371094 322.925781 265.5 C 321.613281 265.628906 320.296875 265.691406 318.976562 265.691406 C 317.65625 265.691406 316.339844 265.628906 315.023438 265.5 C 313.710938 265.371094 312.40625 265.175781 311.109375 264.917969 C 309.816406 264.660156 308.539062 264.339844 307.273438 263.957031 C 306.011719 263.574219 304.769531 263.128906 303.550781 262.625 C 302.328125 262.121094 301.136719 261.554688 299.972656 260.933594 C 298.808594 260.3125 297.679688 259.632812 296.582031 258.898438 C 295.484375 258.167969 294.421875 257.378906 293.402344 256.542969 C 292.382812 255.707031 291.40625 254.820312 290.472656 253.886719 C 289.539062 252.953125 288.652344 251.976562 287.816406 250.957031 C 286.976562 249.933594 286.191406 248.875 285.457031 247.777344 C 284.726562 246.679688 284.046875 245.550781 283.425781 244.386719 C 282.800781 243.222656 282.238281 242.027344 281.734375 240.808594 C 281.226562 239.589844 280.785156 238.347656 280.402344 237.085938 C 280.019531 235.820312 279.699219 234.542969 279.441406 233.246094 C 279.183594 231.953125 278.988281 230.648438 278.859375 229.335938 C 278.730469 228.019531 278.664062 226.703125 278.664062 225.382812 C 278.664062 224.0625 278.730469 222.746094 278.859375 221.433594 C 278.988281 220.117188 279.183594 218.8125 279.441406 217.519531 C 279.699219 216.222656 280.019531 214.945312 280.402344 213.683594 C 280.785156 212.417969 281.226562 211.175781 281.734375 209.957031 C 282.238281 208.738281 282.800781 207.546875 283.425781 206.382812 C 284.046875 205.21875 284.726562 204.085938 285.457031 202.988281 C 286.191406 201.890625 286.976562 200.832031 287.816406 199.8125 C 288.652344 198.789062 289.539062 197.8125 290.472656 196.878906 C 291.40625 195.945312 292.382812 195.0625 293.402344 194.222656 C 294.421875 193.386719 295.484375 192.601562 296.582031 191.867188 C 297.679688 191.132812 298.808594 190.457031 299.972656 189.832031 C 301.136719 189.210938 302.328125 188.648438 303.550781 188.140625 C 304.769531 187.636719 306.011719 187.191406 307.273438 186.808594 C 308.539062 186.425781 309.816406 186.105469 311.109375 185.847656 C 312.40625 185.589844 313.710938 185.398438 315.023438 185.265625 C 316.339844 185.136719 317.65625 185.074219 318.976562 185.074219 C 320.296875 185.074219 321.613281 185.136719 322.925781 185.265625 C 324.238281 185.398438 325.542969 185.589844 326.839844 185.847656 C 328.132812 186.105469 329.414062 186.425781 330.675781 186.808594 C 331.941406 187.191406 333.179688 187.636719 334.402344 188.140625 C 335.621094 188.648438 336.8125 189.210938 337.976562 189.832031 C 339.140625 190.457031 340.273438 191.132812 341.371094 191.867188 C 342.46875 192.601562 343.527344 193.386719 344.546875 194.222656 C 345.566406 195.0625 346.546875 195.945312 347.480469 196.878906 C 348.414062 197.8125 349.296875 198.789062 350.136719 199.8125 C 350.972656 200.832031 351.757812 201.890625 352.492188 202.988281 C 353.226562 204.085938 353.902344 205.21875 354.527344 206.382812 C 355.148438 207.546875 355.710938 208.738281 356.214844 209.957031 C 356.722656 211.175781 357.167969 212.417969 357.550781 213.683594 C 357.933594 214.945312 358.253906 216.222656 358.511719 217.519531 C 358.769531 218.8125 358.960938 220.117188 359.089844 221.433594 C 359.21875 222.746094 359.285156 224.0625 359.285156 225.382812 Z M 359.285156 225.382812 " fill-opacity="1" fill-rule="nonzero"/><path fill="#293a4c" d="M 318.984375 277.480469 C 290.257812 277.480469 266.882812 254.109375 266.882812 225.382812 C 266.882812 196.65625 290.257812 173.285156 318.984375 173.285156 C 347.707031 173.285156 371.082031 196.65625 371.082031 225.382812 C 371.082031 254.109375 347.707031 277.480469 318.984375 277.480469 Z M 318.984375 196.863281 C 303.257812 196.863281 290.460938 209.65625 290.460938 225.382812 C 290.460938 241.109375 303.257812 253.90625 318.984375 253.90625 C 334.710938 253.90625 347.503906 241.109375 347.503906 225.382812 C 347.503906 209.65625 334.710938 196.863281 318.984375 196.863281 Z M 318.984375 196.863281 " fill-opacity="1" fill-rule="nonzero"/><path fill="#293a4c" d="M 264.652344 320.015625 C 264.652344 321.335938 264.585938 322.652344 264.457031 323.96875 C 264.328125 325.28125 264.136719 326.585938 263.878906 327.878906 C 263.621094 329.175781 263.300781 330.453125 262.917969 331.71875 C 262.535156 332.980469 262.089844 334.222656 261.582031 335.441406 C 261.078125 336.660156 260.515625 337.855469 259.890625 339.019531 C 259.269531 340.183594 258.59375 341.3125 257.859375 342.410156 C 257.125 343.507812 256.339844 344.566406 255.503906 345.589844 C 254.664062 346.609375 253.777344 347.585938 252.84375 348.519531 C 251.914062 349.453125 250.933594 350.339844 249.914062 351.175781 C 248.894531 352.015625 247.835938 352.800781 246.738281 353.53125 C 245.640625 354.265625 244.507812 354.945312 243.34375 355.566406 C 242.179688 356.1875 240.988281 356.753906 239.769531 357.257812 C 238.546875 357.761719 237.308594 358.207031 236.042969 358.589844 C 234.78125 358.972656 233.5 359.292969 232.207031 359.550781 C 230.910156 359.808594 229.605469 360.003906 228.292969 360.132812 C 226.980469 360.261719 225.664062 360.328125 224.34375 360.328125 C 223.023438 360.328125 221.703125 360.261719 220.390625 360.132812 C 219.078125 360.003906 217.773438 359.808594 216.476562 359.550781 C 215.183594 359.292969 213.902344 358.972656 212.640625 358.589844 C 211.378906 358.207031 210.136719 357.761719 208.917969 357.257812 C 207.695312 356.753906 206.503906 356.1875 205.339844 355.566406 C 204.175781 354.945312 203.042969 354.265625 201.945312 353.53125 C 200.847656 352.800781 199.789062 352.015625 198.769531 351.175781 C 197.75 350.339844 196.773438 349.453125 195.839844 348.519531 C 194.90625 347.585938 194.019531 346.609375 193.183594 345.589844 C 192.34375 344.566406 191.558594 343.507812 190.824219 342.410156 C 190.09375 341.3125 189.414062 340.183594 188.792969 339.019531 C 188.167969 337.855469 187.605469 336.660156 187.101562 335.441406 C 186.59375 334.222656 186.152344 332.980469 185.769531 331.71875 C 185.382812 330.453125 185.0625 329.175781 184.808594 327.878906 C 184.550781 326.585938 184.355469 325.28125 184.226562 323.96875 C 184.097656 322.652344 184.03125 321.335938 184.03125 320.015625 C 184.03125 318.695312 184.097656 317.378906 184.226562 316.066406 C 184.355469 314.75 184.550781 313.445312 184.808594 312.152344 C 185.0625 310.855469 185.382812 309.578125 185.769531 308.316406 C 186.152344 307.050781 186.59375 305.808594 187.101562 304.589844 C 187.605469 303.371094 188.167969 302.179688 188.792969 301.015625 C 189.414062 299.851562 190.09375 298.71875 190.824219 297.621094 C 191.558594 296.523438 192.34375 295.464844 193.183594 294.445312 C 194.019531 293.421875 194.90625 292.445312 195.839844 291.511719 C 196.773438 290.578125 197.75 289.695312 198.769531 288.855469 C 199.789062 288.019531 200.847656 287.234375 201.945312 286.5 C 203.042969 285.765625 204.175781 285.089844 205.339844 284.464844 C 206.503906 283.84375 207.695312 283.28125 208.917969 282.773438 C 210.136719 282.269531 211.378906 281.824219 212.640625 281.441406 C 213.902344 281.058594 215.183594 280.738281 216.476562 280.480469 C 217.773438 280.222656 219.078125 280.03125 220.390625 279.898438 C 221.703125 279.769531 223.023438 279.707031 224.34375 279.707031 C 225.664062 279.707031 226.980469 279.769531 228.292969 279.898438 C 229.605469 280.03125 230.910156 280.222656 232.207031 280.480469 C 233.5 280.738281 234.78125 281.058594 236.042969 281.441406 C 237.308594 281.824219 238.546875 282.269531 239.769531 282.773438 C 240.988281 283.28125 242.179688 283.84375 243.34375 284.464844 C 244.507812 285.089844 245.640625 285.765625 246.738281 286.5 C 247.835938 287.234375 248.894531 288.019531 249.914062 288.855469 C 250.933594 289.695312 251.914062 290.578125 252.84375 291.511719 C 253.777344 292.445312 254.664062 293.421875 255.503906 294.445312 C 256.339844 295.464844 257.125 296.523438 257.859375 297.621094 C 258.59375 298.71875 259.269531 299.851562 259.890625 301.015625 C 260.515625 302.179688 261.078125 303.371094 261.582031 304.589844 C 262.089844 305.808594 262.535156 307.050781 262.917969 308.316406 C 263.300781 309.578125 263.621094 310.855469 263.878906 312.152344 C 264.136719 313.445312 264.328125 314.75 264.457031 316.066406 C 264.585938 317.378906 264.652344 318.695312 264.652344 320.015625 Z M 264.652344 320.015625 " fill-opacity="1" fill-rule="nonzero"/><path fill="#293a4c" d="M 224.34375 372.113281 C 195.617188 372.113281 172.242188 348.742188 172.242188 320.015625 C 172.242188 291.289062 195.617188 267.925781 224.34375 267.925781 C 253.066406 267.925781 276.441406 291.296875 276.441406 320.015625 C 276.441406 348.734375 253.066406 372.113281 224.34375 372.113281 Z M 224.34375 291.503906 C 208.617188 291.503906 195.820312 304.296875 195.820312 320.015625 C 195.820312 335.734375 208.617188 348.539062 224.34375 348.539062 C 240.070312 348.539062 252.863281 335.742188 252.863281 320.015625 C 252.863281 304.289062 240.070312 291.503906 224.34375 291.503906 Z M 224.34375 291.503906 " fill-opacity="1" fill-rule="nonzero"/><path fill="#293a4c" d="M 264.652344 130.75 C 264.652344 132.070312 264.585938 133.386719 264.457031 134.703125 C 264.328125 136.015625 264.136719 137.320312 263.878906 138.613281 C 263.621094 139.910156 263.300781 141.1875 262.917969 142.453125 C 262.535156 143.714844 262.089844 144.957031 261.582031 146.175781 C 261.078125 147.394531 260.515625 148.585938 259.890625 149.753906 C 259.269531 150.917969 258.59375 152.046875 257.859375 153.144531 C 257.125 154.242188 256.339844 155.300781 255.503906 156.324219 C 254.664062 157.34375 253.777344 158.320312 252.84375 159.253906 C 251.914062 160.1875 250.933594 161.074219 249.914062 161.910156 C 248.894531 162.746094 247.835938 163.535156 246.738281 164.265625 C 245.640625 165 244.507812 165.679688 243.34375 166.300781 C 242.179688 166.921875 240.988281 167.488281 239.769531 167.992188 C 238.546875 168.496094 237.308594 168.941406 236.042969 169.324219 C 234.78125 169.707031 233.5 170.027344 232.207031 170.285156 C 230.910156 170.542969 229.605469 170.738281 228.292969 170.867188 C 226.980469 170.996094 225.664062 171.058594 224.34375 171.058594 C 223.023438 171.058594 221.703125 170.996094 220.390625 170.867188 C 219.078125 170.738281 217.773438 170.542969 216.476562 170.285156 C 215.183594 170.027344 213.902344 169.707031 212.640625 169.324219 C 211.378906 168.941406 210.136719 168.496094 208.917969 167.992188 C 207.695312 167.488281 206.503906 166.921875 205.339844 166.300781 C 204.175781 165.679688 203.042969 165 201.945312 164.265625 C 200.847656 163.535156 199.789062 162.746094 198.769531 161.910156 C 197.75 161.074219 196.773438 160.1875 195.839844 159.253906 C 194.90625 158.320312 194.019531 157.34375 193.183594 156.324219 C 192.34375 155.300781 191.558594 154.242188 190.824219 153.144531 C 190.09375 152.046875 189.414062 150.917969 188.792969 149.753906 C 188.167969 148.585938 187.605469 147.394531 187.101562 146.175781 C 186.59375 144.957031 186.152344 143.714844 185.769531 142.453125 C 185.382812 141.1875 185.0625 139.910156 184.808594 138.613281 C 184.550781 137.320312 184.355469 136.015625 184.226562 134.703125 C 184.097656 133.386719 184.03125 132.070312 184.03125 130.75 C 184.03125 129.429688 184.097656 128.113281 184.226562 126.800781 C 184.355469 125.484375 184.550781 124.179688 184.808594 122.886719 C 185.0625 121.589844 185.382812 120.3125 185.769531 119.046875 C 186.152344 117.785156 186.59375 116.542969 187.101562 115.324219 C 187.605469 114.105469 188.167969 112.914062 188.792969 111.75 C 189.414062 110.582031 190.09375 109.453125 190.824219 108.355469 C 191.558594 107.257812 192.34375 106.199219 193.183594 105.175781 C 194.019531 104.15625 194.90625 103.179688 195.839844 102.246094 C 196.773438 101.3125 197.75 100.425781 198.769531 99.589844 C 199.789062 98.753906 200.847656 97.96875 201.945312 97.234375 C 203.042969 96.5 204.175781 95.820312 205.339844 95.199219 C 206.503906 94.578125 207.695312 94.015625 208.917969 93.507812 C 210.136719 93.003906 211.378906 92.558594 212.640625 92.175781 C 213.902344 91.792969 215.183594 91.472656 216.476562 91.214844 C 217.773438 90.957031 219.078125 90.761719 220.390625 90.632812 C 221.703125 90.503906 223.023438 90.441406 224.34375 90.441406 C 225.664062 90.441406 226.980469 90.503906 228.292969 90.632812 C 229.605469 90.761719 230.910156 90.957031 232.207031 91.214844 C 233.5 91.472656 234.78125 91.792969 236.042969 92.175781 C 237.308594 92.558594 238.546875 93.003906 239.769531 93.507812 C 240.988281 94.015625 242.179688 94.578125 243.34375 95.199219 C 244.507812 95.820312 245.640625 96.5 246.738281 97.234375 C 247.835938 97.96875 248.894531 98.753906 249.914062 99.589844 C 250.933594 100.425781 251.914062 101.3125 252.84375 102.246094 C 253.777344 103.179688 254.664062 104.15625 255.503906 105.175781 C 256.339844 106.199219 257.125 107.257812 257.859375 108.355469 C 258.59375 109.453125 259.269531 110.582031 259.890625 111.75 C 260.515625 112.914062 261.078125 114.105469 261.582031 115.324219 C 262.089844 116.542969 262.535156 117.785156 262.917969 119.046875 C 263.300781 120.3125 263.621094 121.589844 263.878906 122.886719 C 264.136719 124.179688 264.328125 125.484375 264.457031 126.800781 C 264.585938 128.113281 264.652344 129.429688 264.652344 130.75 Z M 264.652344 130.75 " fill-opacity="1" fill-rule="nonzero"/><path fill="#293a4c" d="M 224.34375 182.839844 C 195.617188 182.839844 172.242188 159.46875 172.242188 130.75 C 172.242188 102.03125 195.617188 78.652344 224.34375 78.652344 C 253.066406 78.652344 276.441406 102.023438 276.441406 130.75 C 276.441406 159.476562 253.066406 182.839844 224.34375 182.839844 Z M 224.34375 102.230469 C 208.617188 102.230469 195.820312 115.023438 195.820312 130.75 C 195.820312 146.476562 208.617188 159.261719 224.34375 159.261719 C 240.070312 159.261719 252.863281 146.46875 252.863281 130.75 C 252.863281 115.03125 240.070312 102.230469 224.34375 102.230469 Z M 224.34375 102.230469 " fill-opacity="1" fill-rule="nonzero"/><path fill="#293a4c" d="M 224.34375 257.238281 C 206.777344 257.238281 192.488281 242.949219 192.488281 225.382812 C 192.488281 207.816406 206.777344 193.53125 224.34375 193.53125 C 241.90625 193.53125 256.195312 207.816406 256.195312 225.382812 C 256.195312 242.949219 241.90625 257.238281 224.34375 257.238281 Z M 224.34375 217.109375 C 219.777344 217.109375 216.066406 220.824219 216.066406 225.382812 C 216.066406 229.941406 219.785156 233.660156 224.34375 233.660156 C 228.902344 233.660156 232.617188 229.941406 232.617188 225.382812 C 232.617188 220.824219 228.902344 217.109375 224.34375 217.109375 Z M 224.34375 217.109375 " fill-opacity="1" fill-rule="nonzero"/><path fill="#293a4c" d="M 346.5 449.371094 L 224.34375 449.371094 C 217.828125 449.371094 212.554688 444.089844 212.554688 437.582031 C 212.554688 431.074219 217.828125 425.792969 224.34375 425.792969 L 346.5 425.792969 C 376.503906 425.792969 405.835938 415.339844 429.074219 396.34375 C 434.121094 392.21875 441.546875 392.980469 445.667969 398.019531 C 449.785156 403.066406 449.039062 410.492188 444 414.609375 C 416.554688 437.023438 381.933594 449.371094 346.5 449.371094 Z M 346.5 449.371094 " fill-opacity="1" fill-rule="nonzero"/><g clip-path="url(#039bc89be0)"><g transform="matrix(1, 0, 0, 1, 463, 1)"><g clip-path="url(#ce1ccf7333)"><g fill="#000000" fill-opacity="1"><g transform="translate(0.153323, 167.335078)"><g><path d="M 47.515625 1.953125 C 39.460938 1.953125 32.359375 0.785156 26.203125 -1.546875 C 20.054688 -3.890625 15.238281 -7.289062 11.75 -11.75 C 8.269531 -16.21875 6.53125 -21.5 6.53125 -27.59375 C 6.53125 -30.101562 6.960938 -32.769531 7.828125 -35.59375 C 8.703125 -38.425781 10.007812 -41.117188 11.75 -43.671875 C 13.5 -46.234375 15.734375 -48.300781 18.453125 -49.875 C 21.171875 -51.457031 24.382812 -52.25 28.09375 -52.25 C 30.476562 -52.25 32.269531 -51.734375 33.46875 -50.703125 C 34.664062 -49.671875 35.265625 -48.175781 35.265625 -46.21875 C 35.265625 -44.582031 34.882812 -43.03125 34.125 -41.5625 C 33.363281 -40.09375 32.628906 -38.625 31.921875 -37.15625 C 31.210938 -35.6875 30.859375 -34.078125 30.859375 -32.328125 C 30.859375 -29.710938 32.054688 -27.453125 34.453125 -25.546875 C 36.847656 -23.648438 41.203125 -22.703125 47.515625 -22.703125 C 55.140625 -22.703125 60.394531 -24.222656 63.28125 -27.265625 C 66.164062 -30.316406 67.609375 -35.160156 67.609375 -41.796875 C 67.609375 -45.390625 67.222656 -49.632812 66.453125 -54.53125 C 65.691406 -59.4375 64.628906 -64.582031 63.265625 -69.96875 C 61.910156 -75.363281 60.414062 -80.617188 58.78125 -85.734375 C 57.15625 -90.847656 55.46875 -95.421875 53.71875 -99.453125 C 52.632812 -102.273438 52.828125 -104.800781 54.296875 -107.03125 C 55.765625 -109.269531 57.804688 -110.390625 60.421875 -110.390625 C 65.859375 -110.273438 70.15625 -109.320312 73.3125 -107.53125 C 76.476562 -105.738281 78.984375 -102.390625 80.828125 -97.484375 C 82.242188 -93.566406 83.6875 -89.019531 85.15625 -83.84375 C 86.625 -78.675781 87.957031 -73.316406 89.15625 -67.765625 C 90.351562 -62.210938 91.304688 -56.878906 92.015625 -51.765625 C 92.722656 -46.648438 93.078125 -42.132812 93.078125 -38.21875 C 93.078125 -24.382812 89.210938 -14.226562 81.484375 -7.75 C 73.753906 -1.28125 62.429688 1.953125 47.515625 1.953125 Z M 33.15625 -89.484375 C 30.757812 -89.484375 28.171875 -89.8125 25.390625 -90.46875 C 22.617188 -91.125 20.003906 -92.1875 17.546875 -93.65625 C 15.097656 -95.125 13.113281 -97.054688 11.59375 -99.453125 C 10.070312 -101.847656 9.3125 -104.785156 9.3125 -108.265625 C 9.3125 -110.765625 9.960938 -112.75 11.265625 -114.21875 C 12.578125 -115.695312 14.425781 -116.4375 16.8125 -116.4375 C 19.320312 -116.4375 21.582031 -116.269531 23.59375 -115.9375 C 25.613281 -115.613281 27.679688 -115.257812 29.796875 -114.875 C 31.921875 -114.5 34.070312 -114.3125 36.25 -114.3125 C 40.5 -114.3125 44.523438 -114.472656 48.328125 -114.796875 C 52.140625 -115.117188 56.195312 -115.441406 60.5 -115.765625 C 64.800781 -116.097656 69.945312 -116.265625 75.9375 -116.265625 C 79.53125 -116.265625 83.117188 -115.851562 86.703125 -115.03125 C 90.296875 -114.21875 93.265625 -112.722656 95.609375 -110.546875 C 97.953125 -108.367188 99.125 -105.160156 99.125 -100.921875 C 99.125 -95.035156 95.53125 -92.09375 88.34375 -92.09375 C 81.269531 -92.09375 74.328125 -91.875 67.515625 -91.4375 C 60.710938 -91.007812 54.375 -90.578125 48.5 -90.140625 C 42.625 -89.703125 37.507812 -89.484375 33.15625 -89.484375 Z M 33.15625 -89.484375 "/></g></g></g><g fill="#000000" fill-opacity="1"><g transform="translate(104.000529, 167.335078)"><g><path d="M 24.828125 1.953125 C 22.316406 1.953125 20.132812 1.378906 18.28125 0.234375 C 16.4375 -0.898438 14.882812 -2.828125 13.625 -5.546875 C 12.375 -8.273438 11.453125 -11.976562 10.859375 -16.65625 C 10.265625 -21.332031 9.96875 -27.15625 9.96875 -34.125 C 9.96875 -38.8125 10.101562 -43.25 10.375 -47.4375 C 10.644531 -51.625 10.890625 -55.59375 11.109375 -59.34375 C 11.328125 -63.101562 11.4375 -66.78125 11.4375 -70.375 C 11.4375 -73.207031 11.296875 -75.820312 11.015625 -78.21875 C 10.742188 -80.613281 10.414062 -82.789062 10.03125 -84.75 C 9.65625 -86.707031 9.332031 -88.53125 9.0625 -90.21875 C 8.789062 -91.90625 8.65625 -93.457031 8.65625 -94.875 C 8.65625 -97.925781 9.363281 -100.375 10.78125 -102.21875 C 12.195312 -104.070312 14.644531 -105 18.125 -105 C 21.394531 -105 24.195312 -104.019531 26.53125 -102.0625 C 28.875 -100.101562 30.695312 -97.597656 32 -94.546875 C 33.3125 -91.503906 34.019531 -88.238281 34.125 -84.75 L 30.203125 -82.796875 C 32.492188 -89.328125 35.082031 -95.066406 37.96875 -100.015625 C 40.851562 -104.972656 43.984375 -108.835938 47.359375 -111.609375 C 50.734375 -114.390625 54.269531 -115.78125 57.96875 -115.78125 C 60.6875 -115.78125 63.082031 -115.070312 65.15625 -113.65625 C 67.226562 -112.238281 69.109375 -109.953125 70.796875 -106.796875 C 72.484375 -103.640625 74.03125 -99.582031 75.4375 -94.625 C 76.851562 -89.675781 78.269531 -83.609375 79.6875 -76.421875 C 81.101562 -69.347656 82.242188 -63.144531 83.109375 -57.8125 C 83.984375 -52.476562 84.910156 -47.660156 85.890625 -43.359375 C 86.867188 -39.054688 88.335938 -34.726562 90.296875 -30.375 L 80.828125 -34.78125 C 82.460938 -38.914062 84.015625 -43.429688 85.484375 -48.328125 C 86.953125 -53.234375 88.445312 -58.269531 89.96875 -63.4375 C 91.5 -68.613281 93.109375 -73.703125 94.796875 -78.703125 C 96.484375 -83.710938 98.304688 -88.285156 100.265625 -92.421875 C 102.441406 -96.890625 104.753906 -100.945312 107.203125 -104.59375 C 109.648438 -108.238281 112.394531 -111.125 115.4375 -113.25 C 118.488281 -115.375 122.085938 -116.4375 126.234375 -116.4375 C 129.390625 -116.4375 132.300781 -115.753906 134.96875 -114.390625 C 137.632812 -113.023438 139.972656 -110.816406 141.984375 -107.765625 C 143.992188 -104.722656 145.679688 -100.75 147.046875 -95.84375 C 148.410156 -90.945312 149.472656 -84.910156 150.234375 -77.734375 C 151.109375 -69.785156 152.035156 -62.023438 153.015625 -54.453125 C 153.992188 -46.890625 155.242188 -39.757812 156.765625 -33.0625 C 158.285156 -26.375 160.082031 -20.414062 162.15625 -15.1875 C 163.351562 -12.03125 163.816406 -9.195312 163.546875 -6.6875 C 163.273438 -4.1875 162.1875 -2.203125 160.28125 -0.734375 C 158.375 0.730469 155.84375 1.46875 152.6875 1.46875 C 148.875 1.46875 145.601562 0.460938 142.875 -1.546875 C 140.15625 -3.566406 137.707031 -6.695312 135.53125 -10.9375 C 133.789062 -14.207031 132.347656 -18.179688 131.203125 -22.859375 C 130.066406 -27.546875 129.113281 -32.5 128.34375 -37.71875 C 127.582031 -42.945312 126.929688 -48.09375 126.390625 -53.15625 C 125.847656 -58.21875 125.359375 -62.867188 124.921875 -67.109375 C 124.703125 -70.703125 124.347656 -73.96875 123.859375 -76.90625 C 123.367188 -79.851562 122.710938 -82.660156 121.890625 -85.328125 C 121.078125 -87.992188 119.960938 -90.632812 118.546875 -93.25 L 126.71875 -89.484375 C 123.664062 -85.785156 121.023438 -81.1875 118.796875 -75.6875 C 116.566406 -70.1875 114.414062 -63.925781 112.34375 -56.90625 C 110.28125 -49.882812 108.019531 -42.265625 105.5625 -34.046875 C 103.113281 -25.828125 100.097656 -17.035156 96.515625 -7.671875 C 95.203125 -4.296875 93.644531 -1.898438 91.84375 -0.484375 C 90.050781 0.929688 87.6875 1.640625 84.75 1.640625 C 81.914062 1.640625 79.570312 1.066406 77.71875 -0.078125 C 75.875 -1.222656 74.191406 -3.101562 72.671875 -5.71875 C 69.398438 -11.050781 66.726562 -17.472656 64.65625 -24.984375 C 62.59375 -32.492188 60.800781 -41.421875 59.28125 -51.765625 C 58.300781 -58.734375 57.320312 -64.773438 56.34375 -69.890625 C 55.363281 -75.003906 53.835938 -79.90625 51.765625 -84.59375 L 54.375 -84.265625 C 47.738281 -74.140625 43.164062 -62.894531 40.65625 -50.53125 C 38.15625 -38.175781 36.523438 -24.488281 35.765625 -9.46875 C 35.546875 -5.332031 34.457031 -2.394531 32.5 -0.65625 C 30.539062 1.082031 27.984375 1.953125 24.828125 1.953125 Z M 24.828125 1.953125 "/></g></g></g><g fill="#000000" fill-opacity="1"><g transform="translate(264.832631, 167.335078)"><g><path d="M 15.1875 -68.578125 C 12.03125 -68.578125 9.6875 -69.613281 8.15625 -71.6875 C 6.632812 -73.757812 6.039062 -76.265625 6.375 -79.203125 C 6.914062 -82.578125 7.785156 -86.140625 8.984375 -89.890625 C 10.179688 -93.648438 11.40625 -98.03125 12.65625 -103.03125 C 13.90625 -108.039062 14.800781 -113.921875 15.34375 -120.671875 C 15.78125 -124.804688 16.816406 -127.851562 18.453125 -129.8125 C 20.085938 -131.78125 22.59375 -132.765625 25.96875 -132.765625 C 28.90625 -132.765625 31.734375 -132.132812 34.453125 -130.875 C 37.171875 -129.625 39.398438 -127.851562 41.140625 -125.5625 C 42.890625 -123.28125 43.765625 -120.617188 43.765625 -117.578125 C 43.765625 -113.984375 43.273438 -110.195312 42.296875 -106.21875 C 41.316406 -102.25 40.007812 -98.300781 38.375 -94.375 C 36.738281 -90.457031 34.96875 -86.863281 33.0625 -83.59375 C 31.15625 -80.332031 29.222656 -77.5625 27.265625 -75.28125 C 25.203125 -72.882812 23.242188 -71.164062 21.390625 -70.125 C 19.535156 -69.09375 17.46875 -68.578125 15.1875 -68.578125 Z M 15.1875 -68.578125 "/></g></g></g><g fill="#000000" fill-opacity="1"><g transform="translate(296.34527, 167.335078)"><g><path d="M 33.46875 1.640625 C 26.613281 1.640625 21.0625 0.742188 16.8125 -1.046875 C 12.570312 -2.847656 9.472656 -5.21875 7.515625 -8.15625 C 5.554688 -11.101562 4.578125 -14.265625 4.578125 -17.640625 C 4.578125 -20.035156 5.3125 -21.96875 6.78125 -23.4375 C 8.25 -24.90625 10.453125 -25.640625 13.390625 -25.640625 C 14.804688 -25.640625 16.191406 -25.421875 17.546875 -24.984375 C 18.910156 -24.546875 20.351562 -24.023438 21.875 -23.421875 C 23.40625 -22.828125 25.09375 -22.285156 26.9375 -21.796875 C 28.789062 -21.304688 30.96875 -21.0625 33.46875 -21.0625 C 39.570312 -21.0625 44.445312 -21.6875 48.09375 -22.9375 C 51.738281 -24.195312 54.429688 -25.859375 56.171875 -27.921875 C 55.085938 -29.441406 53.15625 -30.582031 50.375 -31.34375 C 47.601562 -32.113281 44.421875 -32.796875 40.828125 -33.390625 C 37.234375 -33.992188 33.503906 -34.726562 29.640625 -35.59375 C 25.773438 -36.46875 22.179688 -37.691406 18.859375 -39.265625 C 15.535156 -40.847656 12.867188 -42.972656 10.859375 -45.640625 C 8.847656 -48.304688 7.84375 -51.816406 7.84375 -56.171875 C 7.84375 -61.285156 9.203125 -65.664062 11.921875 -69.3125 C 14.640625 -72.96875 18.226562 -75.9375 22.6875 -78.21875 C 27.15625 -80.507812 32.082031 -82.195312 37.46875 -83.28125 C 42.863281 -84.375 48.171875 -84.863281 53.390625 -84.75 C 57.859375 -84.75 61.535156 -84.039062 64.421875 -82.625 C 67.304688 -81.207031 69.457031 -79.300781 70.875 -76.90625 C 72.289062 -74.519531 73 -71.910156 73 -69.078125 C 73 -66.347656 72.316406 -64.164062 70.953125 -62.53125 C 69.585938 -60.90625 67.707031 -60.09375 65.3125 -60.09375 C 63.789062 -60.09375 62.457031 -60.144531 61.3125 -60.25 C 60.175781 -60.363281 59.007812 -60.5 57.8125 -60.65625 C 56.613281 -60.820312 54.925781 -60.90625 52.75 -60.90625 C 47.625 -60.90625 43.210938 -60.359375 39.515625 -59.265625 C 35.816406 -58.179688 32.988281 -56.660156 31.03125 -54.703125 C 31.894531 -53.179688 33.6875 -52.035156 36.40625 -51.265625 C 39.132812 -50.503906 42.375 -49.796875 46.125 -49.140625 C 49.882812 -48.492188 53.773438 -47.789062 57.796875 -47.03125 C 61.828125 -46.269531 65.554688 -45.125 68.984375 -43.59375 C 72.421875 -42.070312 75.226562 -40.03125 77.40625 -37.46875 C 79.582031 -34.914062 80.671875 -31.570312 80.671875 -27.4375 C 80.671875 -20.570312 78.601562 -15.015625 74.46875 -10.765625 C 70.332031 -6.523438 64.695312 -3.394531 57.5625 -1.375 C 50.425781 0.632812 42.394531 1.640625 33.46875 1.640625 Z M 33.46875 1.640625 "/></g></g></g><g fill="#003366" fill-opacity="1"><g transform="translate(0.153323, 395.286078)"><g><path d="M 24.828125 1.953125 C 21.453125 1.953125 18.675781 0.894531 16.5 -1.21875 C 14.320312 -3.34375 12.6875 -7.015625 11.59375 -12.234375 C 10.507812 -17.460938 9.96875 -24.757812 9.96875 -34.125 C 9.96875 -38.8125 10.101562 -43.25 10.375 -47.4375 C 10.644531 -51.625 10.890625 -55.59375 11.109375 -59.34375 C 11.328125 -63.101562 11.4375 -66.78125 11.4375 -70.375 C 11.4375 -73.207031 11.296875 -75.820312 11.015625 -78.21875 C 10.742188 -80.613281 10.414062 -82.789062 10.03125 -84.75 C 9.65625 -86.707031 9.332031 -88.53125 9.0625 -90.21875 C 8.789062 -91.90625 8.65625 -93.457031 8.65625 -94.875 C 8.65625 -97.925781 9.363281 -100.375 10.78125 -102.21875 C 12.195312 -104.070312 14.644531 -105 18.125 -105 C 21.394531 -105 24.195312 -104.019531 26.53125 -102.0625 C 28.875 -100.101562 30.695312 -97.597656 32 -94.546875 C 33.3125 -91.503906 34.019531 -88.238281 34.125 -84.75 L 30.203125 -82.796875 C 32.492188 -89.328125 35.082031 -95.066406 37.96875 -100.015625 C 40.851562 -104.972656 43.984375 -108.835938 47.359375 -111.609375 C 50.734375 -114.390625 54.269531 -115.78125 57.96875 -115.78125 C 60.6875 -115.78125 63.082031 -115.070312 65.15625 -113.65625 C 67.226562 -112.238281 69.109375 -109.953125 70.796875 -106.796875 C 72.484375 -103.640625 74.03125 -99.582031 75.4375 -94.625 C 76.851562 -89.675781 78.269531 -83.609375 79.6875 -76.421875 C 81.101562 -69.347656 82.242188 -63.144531 83.109375 -57.8125 C 83.984375 -52.476562 84.910156 -47.660156 85.890625 -43.359375 C 86.867188 -39.054688 88.335938 -34.726562 90.296875 -30.375 L 80.828125 -34.78125 C 82.460938 -38.914062 84.015625 -43.429688 85.484375 -48.328125 C 86.953125 -53.234375 88.445312 -58.269531 89.96875 -63.4375 C 91.5 -68.613281 93.109375 -73.703125 94.796875 -78.703125 C 96.484375 -83.710938 98.304688 -88.285156 100.265625 -92.421875 C 102.441406 -96.890625 104.753906 -100.945312 107.203125 -104.59375 C 109.648438 -108.238281 112.394531 -111.125 115.4375 -113.25 C 118.488281 -115.375 122.085938 -116.4375 126.234375 -116.4375 C 129.390625 -116.4375 132.300781 -115.753906 134.96875 -114.390625 C 137.632812 -113.023438 139.972656 -110.816406 141.984375 -107.765625 C 143.992188 -104.722656 145.679688 -100.75 147.046875 -95.84375 C 148.410156 -90.945312 149.472656 -84.910156 150.234375 -77.734375 C 151.109375 -69.785156 152.035156 -62.023438 153.015625 -54.453125 C 153.992188 -46.890625 155.242188 -39.757812 156.765625 -33.0625 C 158.285156 -26.375 160.082031 -20.414062 162.15625 -15.1875 C 163.351562 -12.03125 163.816406 -9.195312 163.546875 -6.6875 C 163.273438 -4.1875 162.1875 -2.203125 160.28125 -0.734375 C 158.375 0.730469 155.84375 1.46875 152.6875 1.46875 C 148.875 1.46875 145.601562 0.460938 142.875 -1.546875 C 140.15625 -3.566406 137.707031 -6.695312 135.53125 -10.9375 C 133.789062 -14.207031 132.347656 -18.179688 131.203125 -22.859375 C 130.066406 -27.546875 129.113281 -32.5 128.34375 -37.71875 C 127.582031 -42.945312 126.929688 -48.09375 126.390625 -53.15625 C 125.847656 -58.21875 125.359375 -62.867188 124.921875 -67.109375 C 124.703125 -70.703125 124.347656 -73.96875 123.859375 -76.90625 C 123.367188 -79.851562 122.710938 -82.660156 121.890625 -85.328125 C 121.078125 -87.992188 119.960938 -90.632812 118.546875 -93.25 L 126.71875 -89.484375 C 123.664062 -85.785156 121.023438 -81.1875 118.796875 -75.6875 C 116.566406 -70.1875 114.414062 -63.925781 112.34375 -56.90625 C 110.28125 -49.882812 108.019531 -42.265625 105.5625 -34.046875 C 103.113281 -25.828125 100.097656 -17.035156 96.515625 -7.671875 C 95.203125 -4.296875 93.644531 -1.898438 91.84375 -0.484375 C 90.050781 0.929688 87.6875 1.640625 84.75 1.640625 C 81.914062 1.640625 79.570312 1.066406 77.71875 -0.078125 C 75.875 -1.222656 74.191406 -3.101562 72.671875 -5.71875 C 69.398438 -11.050781 66.726562 -17.472656 64.65625 -24.984375 C 62.59375 -32.492188 60.800781 -41.421875 59.28125 -51.765625 C 58.300781 -58.734375 57.320312 -64.773438 56.34375 -69.890625 C 55.363281 -75.003906 53.835938 -79.90625 51.765625 -84.59375 L 54.375 -84.265625 C 47.738281 -74.140625 43.164062 -62.894531 40.65625 -50.53125 C 38.15625 -38.175781 36.523438 -24.488281 35.765625 -9.46875 C 35.546875 -5.332031 34.457031 -2.394531 32.5 -0.65625 C 30.539062 1.082031 27.984375 1.953125 24.828125 1.953125 Z M 24.828125 1.953125 "/></g></g></g><g fill="#003366" fill-opacity="1"><g transform="translate(167.353801, 395.286078)"><g><path d="M 55.515625 1.953125 C 46.046875 1.953125 37.664062 0.0507812 30.375 -3.75 C 23.082031 -7.5625 17.335938 -12.816406 13.140625 -19.515625 C 8.953125 -26.210938 6.859375 -33.859375 6.859375 -42.453125 C 6.859375 -48.003906 8.054688 -53.335938 10.453125 -58.453125 C 12.847656 -63.578125 15.976562 -68.148438 19.84375 -72.171875 C 23.707031 -76.203125 27.976562 -79.382812 32.65625 -81.71875 C 37.34375 -84.0625 41.914062 -85.234375 46.375 -85.234375 C 48.226562 -85.234375 50 -84.929688 51.6875 -84.328125 C 53.375 -83.734375 54.707031 -82.8125 55.6875 -81.5625 C 56.664062 -80.3125 57.15625 -78.597656 57.15625 -76.421875 C 57.15625 -72.503906 56.363281 -69.070312 54.78125 -66.125 C 53.207031 -63.1875 49.96875 -60.90625 45.0625 -59.28125 C 42.675781 -58.1875 40.472656 -56.769531 38.453125 -55.03125 C 36.441406 -53.289062 34.835938 -51.273438 33.640625 -48.984375 C 32.441406 -46.703125 31.84375 -44.304688 31.84375 -41.796875 C 31.84375 -35.597656 33.910156 -30.59375 38.046875 -26.78125 C 42.179688 -22.96875 47.734375 -21.0625 54.703125 -21.0625 C 60.578125 -21.0625 65.363281 -22.96875 69.0625 -26.78125 C 72.769531 -30.59375 74.625 -35.65625 74.625 -41.96875 C 74.625 -47.40625 73.046875 -51.785156 69.890625 -55.109375 C 66.734375 -58.429688 62.597656 -60.09375 57.484375 -60.09375 C 54.972656 -60.09375 52.875 -59.4375 51.1875 -58.125 C 49.5 -56.820312 47.566406 -55.082031 45.390625 -52.90625 C 43.867188 -51.269531 42.507812 -49.960938 41.3125 -48.984375 C 40.113281 -48.003906 38.941406 -47.269531 37.796875 -46.78125 C 36.660156 -46.289062 35.21875 -46.046875 33.46875 -46.046875 C 31.507812 -46.046875 29.796875 -46.804688 28.328125 -48.328125 C 26.859375 -49.859375 26.125 -52.742188 26.125 -56.984375 C 26.125 -60.035156 26.96875 -63.140625 28.65625 -66.296875 C 30.34375 -69.453125 32.570312 -72.335938 35.34375 -74.953125 C 38.125 -77.566406 41.253906 -79.660156 44.734375 -81.234375 C 48.222656 -82.816406 51.707031 -83.609375 55.1875 -83.609375 C 64.445312 -83.609375 72.367188 -81.945312 78.953125 -78.625 C 85.535156 -75.300781 90.566406 -70.59375 94.046875 -64.5 C 97.535156 -58.40625 99.28125 -51.164062 99.28125 -42.78125 C 99.28125 -34.289062 97.347656 -26.671875 93.484375 -19.921875 C 89.617188 -13.171875 84.394531 -7.835938 77.8125 -3.921875 C 71.226562 -0.00390625 63.796875 1.953125 55.515625 1.953125 Z M 55.515625 1.953125 "/></g></g></g><g fill="#003366" fill-opacity="1"><g transform="translate(271.527419, 395.286078)"><g><path d="M 47.84375 1.640625 C 44.46875 1.640625 41.582031 0.742188 39.1875 -1.046875 C 36.789062 -2.847656 34.34375 -5.710938 31.84375 -9.640625 C 30.320312 -12.035156 28.660156 -15.132812 26.859375 -18.9375 C 25.066406 -22.75 23.296875 -26.75 21.546875 -30.9375 C 19.804688 -35.132812 18.285156 -38.921875 16.984375 -42.296875 C 15.023438 -47.410156 13.226562 -51.628906 11.59375 -54.953125 C 9.957031 -58.273438 8.59375 -61.128906 7.5 -63.515625 C 6.414062 -65.910156 5.570312 -68.0625 4.96875 -69.96875 C 4.375 -71.875 4.078125 -73.972656 4.078125 -76.265625 C 4.078125 -78.660156 4.863281 -80.644531 6.4375 -82.21875 C 8.019531 -83.800781 10.609375 -84.59375 14.203125 -84.59375 C 17.691406 -84.59375 20.660156 -83.800781 23.109375 -82.21875 C 25.554688 -80.644531 27.734375 -78.441406 29.640625 -75.609375 C 31.546875 -72.773438 33.207031 -69.34375 34.625 -65.3125 C 36.144531 -61.289062 37.71875 -57.070312 39.34375 -52.65625 C 40.976562 -48.25 42.664062 -43.867188 44.40625 -39.515625 C 46.15625 -35.160156 47.898438 -30.96875 49.640625 -26.9375 L 43.28125 -28.25 C 45.882812 -33.363281 48.328125 -38.148438 50.609375 -42.609375 C 52.898438 -47.078125 55.21875 -51.378906 57.5625 -55.515625 C 59.90625 -59.648438 62.410156 -63.675781 65.078125 -67.59375 C 67.742188 -71.519531 70.765625 -75.5 74.140625 -79.53125 C 75.660156 -81.375 77.316406 -82.734375 79.109375 -83.609375 C 80.910156 -84.484375 82.898438 -84.921875 85.078125 -84.921875 C 87.148438 -84.921875 88.945312 -84.320312 90.46875 -83.125 C 91.988281 -81.925781 93.15625 -80.425781 93.96875 -78.625 C 94.789062 -76.832031 95.203125 -74.898438 95.203125 -72.828125 C 95.203125 -70.648438 94.925781 -68.523438 94.375 -66.453125 C 93.832031 -64.390625 93.019531 -62.539062 91.9375 -60.90625 C 88.445312 -56.007812 85.285156 -51.492188 82.453125 -47.359375 C 79.628906 -43.222656 76.9375 -39.140625 74.375 -35.109375 C 71.820312 -31.078125 69.238281 -26.71875 66.625 -22.03125 C 64.007812 -17.351562 61.34375 -11.96875 58.625 -5.875 C 57.207031 -3.15625 55.707031 -1.222656 54.125 -0.078125 C 52.550781 1.066406 50.457031 1.640625 47.84375 1.640625 Z M 47.84375 1.640625 "/></g></g></g><g fill="#003366" fill-opacity="1"><g transform="translate(369.65967, 395.286078)"><g><path d="M 24.984375 1.640625 C 21.710938 1.640625 19.097656 0.929688 17.140625 -0.484375 C 15.179688 -1.898438 13.738281 -3.832031 12.8125 -6.28125 C 11.894531 -8.738281 11.4375 -11.488281 11.4375 -14.53125 C 11.4375 -21.601562 11.378906 -27.5625 11.265625 -32.40625 C 11.160156 -37.257812 11.078125 -41.476562 11.015625 -45.0625 C 10.960938 -48.65625 10.878906 -52.03125 10.765625 -55.1875 C 10.660156 -58.351562 10.609375 -61.726562 10.609375 -65.3125 C 10.609375 -68.6875 11.148438 -71.789062 12.234375 -74.625 C 13.328125 -77.457031 15.097656 -79.6875 17.546875 -81.3125 C 20.003906 -82.945312 23.132812 -83.765625 26.9375 -83.765625 C 30.75 -83.765625 33.742188 -82.539062 35.921875 -80.09375 C 38.097656 -77.644531 39.242188 -73.863281 39.359375 -68.75 C 39.359375 -66.570312 39.328125 -63.578125 39.265625 -59.765625 C 39.210938 -55.953125 39.101562 -51.734375 38.9375 -47.109375 C 38.78125 -42.484375 38.617188 -37.859375 38.453125 -33.234375 C 38.296875 -28.609375 38.160156 -24.332031 38.046875 -20.40625 C 37.941406 -16.488281 37.890625 -13.332031 37.890625 -10.9375 C 37.890625 -7.34375 36.851562 -4.347656 34.78125 -1.953125 C 32.707031 0.441406 29.441406 1.640625 24.984375 1.640625 Z M 26.953125 -94.21875 C 21.398438 -94.21875 16.9375 -95.660156 13.5625 -98.546875 C 10.1875 -101.429688 8.5 -104.941406 8.5 -109.078125 C 8.5 -113.546875 9.992188 -116.976562 12.984375 -119.375 C 15.972656 -121.769531 19.8125 -122.96875 24.5 -122.96875 C 28.195312 -122.96875 31.296875 -122.148438 33.796875 -120.515625 C 36.304688 -118.878906 38.238281 -116.863281 39.59375 -114.46875 C 40.957031 -112.070312 41.640625 -109.675781 41.640625 -107.28125 C 41.640625 -104.125 40.523438 -101.15625 38.296875 -98.375 C 36.066406 -95.601562 32.285156 -94.21875 26.953125 -94.21875 Z M 26.953125 -94.21875 "/></g></g></g><g fill="#003366" fill-opacity="1"><g transform="translate(418.970726, 395.286078)"><g><path d="M 47.515625 1.640625 C 40.441406 1.640625 34.289062 0.769531 29.0625 -0.96875 C 23.84375 -2.71875 19.570312 -5.222656 16.25 -8.484375 C 12.925781 -11.753906 10.445312 -15.566406 8.8125 -19.921875 C 7.1875 -24.273438 6.375 -29.066406 6.375 -34.296875 C 6.375 -40.171875 7.488281 -46.070312 9.71875 -52 C 11.945312 -57.9375 15.128906 -63.378906 19.265625 -68.328125 C 23.398438 -73.285156 28.378906 -77.257812 34.203125 -80.25 C 40.035156 -83.25 46.539062 -84.75 53.71875 -84.75 C 59.925781 -84.75 65.367188 -83.710938 70.046875 -81.640625 C 74.734375 -79.578125 78.410156 -76.476562 81.078125 -72.34375 C 83.742188 -68.207031 85.078125 -63.085938 85.078125 -56.984375 C 85.078125 -52.410156 83.988281 -48.410156 81.8125 -44.984375 C 79.632812 -41.554688 76.613281 -38.753906 72.75 -36.578125 C 68.882812 -34.398438 64.445312 -32.789062 59.4375 -31.75 C 54.425781 -30.71875 49.039062 -30.203125 43.28125 -30.203125 C 37.394531 -30.203125 32.875 -31.265625 29.71875 -33.390625 C 26.5625 -35.515625 24.984375 -37.992188 24.984375 -40.828125 C 24.984375 -42.347656 25.335938 -43.515625 26.046875 -44.328125 C 26.753906 -45.148438 27.976562 -45.5625 29.71875 -45.5625 C 30.914062 -45.5625 32.332031 -45.394531 33.96875 -45.0625 C 35.601562 -44.738281 37.832031 -44.578125 40.65625 -44.578125 C 44.25 -44.578125 47.675781 -45.066406 50.9375 -46.046875 C 54.207031 -47.023438 56.875 -48.359375 58.9375 -50.046875 C 61.007812 -51.734375 62.046875 -53.613281 62.046875 -55.6875 C 62.046875 -58.082031 61.445312 -59.878906 60.25 -61.078125 C 59.050781 -62.273438 56.984375 -62.875 54.046875 -62.875 C 50.671875 -62.875 47.566406 -61.972656 44.734375 -60.171875 C 41.910156 -58.378906 39.4375 -55.984375 37.3125 -52.984375 C 35.1875 -49.992188 33.550781 -46.59375 32.40625 -42.78125 C 31.269531 -38.96875 30.703125 -35.050781 30.703125 -31.03125 C 30.703125 -28.519531 31.160156 -26.335938 32.078125 -24.484375 C 33.003906 -22.640625 34.582031 -21.28125 36.8125 -20.40625 C 39.050781 -19.539062 42.019531 -19.109375 45.71875 -19.109375 C 52.03125 -19.109375 57.3125 -19.675781 61.5625 -20.8125 C 65.8125 -21.957031 69.378906 -23.289062 72.265625 -24.8125 C 75.148438 -26.34375 77.648438 -27.707031 79.765625 -28.90625 C 81.890625 -30.101562 83.988281 -30.703125 86.0625 -30.703125 C 88.125 -30.703125 89.671875 -30.019531 90.703125 -28.65625 C 91.742188 -27.300781 92.265625 -25.316406 92.265625 -22.703125 C 92.265625 -19.867188 91.175781 -16.984375 89 -14.046875 C 86.820312 -11.109375 83.769531 -8.492188 79.84375 -6.203125 C 75.925781 -3.921875 71.21875 -2.039062 65.71875 -0.5625 C 60.226562 0.902344 54.160156 1.640625 47.515625 1.640625 Z M 47.515625 1.640625 "/></g></g></g><g fill="#000000" fill-opacity="1"><g transform="translate(516.471914, 395.286078)"><g><path d="M 47.1875 1.46875 C 34.125 1.46875 24.269531 -2.09375 17.625 -9.21875 C 10.988281 -16.351562 7.671875 -26.941406 7.671875 -40.984375 C 7.671875 -49.148438 8.347656 -56.851562 9.703125 -64.09375 C 11.066406 -71.332031 12.429688 -78.269531 13.796875 -84.90625 C 15.160156 -91.550781 15.84375 -97.8125 15.84375 -103.6875 C 15.84375 -107.28125 16.6875 -110.21875 18.375 -112.5 C 20.0625 -114.789062 22.972656 -115.9375 27.109375 -115.9375 C 30.367188 -115.9375 33.085938 -115.066406 35.265625 -113.328125 C 37.441406 -111.585938 39.070312 -109.382812 40.15625 -106.71875 C 41.25 -104.050781 41.796875 -101.351562 41.796875 -98.625 C 41.796875 -93.070312 41.332031 -87.46875 40.40625 -81.8125 C 39.488281 -76.15625 38.429688 -70.6875 37.234375 -65.40625 C 36.035156 -60.125 34.972656 -55.222656 34.046875 -50.703125 C 33.117188 -46.179688 32.65625 -42.234375 32.65625 -38.859375 C 32.65625 -33.742188 33.851562 -29.851562 36.25 -27.1875 C 38.644531 -24.519531 42.617188 -23.1875 48.171875 -23.1875 C 52.640625 -23.1875 56.234375 -23.675781 58.953125 -24.65625 C 61.671875 -25.632812 63.984375 -26.695312 65.890625 -27.84375 C 67.796875 -28.988281 69.5625 -30.019531 71.1875 -30.9375 C 72.820312 -31.863281 74.785156 -32.328125 77.078125 -32.328125 C 79.472656 -32.328125 81.40625 -31.320312 82.875 -29.3125 C 84.34375 -27.300781 85.078125 -24.988281 85.078125 -22.375 C 85.078125 -19.4375 84.503906 -16.601562 83.359375 -13.875 C 82.222656 -11.15625 80.398438 -8.757812 77.890625 -6.6875 C 74.078125 -3.863281 69.367188 -1.796875 63.765625 -0.484375 C 58.160156 0.816406 52.632812 1.46875 47.1875 1.46875 Z M 47.1875 1.46875 "/></g></g></g><g fill="#000000" fill-opacity="1"><g transform="translate(603.174433, 395.286078)"><g><path d="M 24.984375 1.640625 C 21.710938 1.640625 19.097656 0.929688 17.140625 -0.484375 C 15.179688 -1.898438 13.738281 -3.832031 12.8125 -6.28125 C 11.894531 -8.738281 11.4375 -11.488281 11.4375 -14.53125 C 11.4375 -21.601562 11.378906 -27.5625 11.265625 -32.40625 C 11.160156 -37.257812 11.078125 -41.476562 11.015625 -45.0625 C 10.960938 -48.65625 10.878906 -52.03125 10.765625 -55.1875 C 10.660156 -58.351562 10.609375 -61.726562 10.609375 -65.3125 C 10.609375 -68.6875 11.148438 -71.789062 12.234375 -74.625 C 13.328125 -77.457031 15.097656 -79.6875 17.546875 -81.3125 C 20.003906 -82.945312 23.132812 -83.765625 26.9375 -83.765625 C 30.75 -83.765625 33.742188 -82.539062 35.921875 -80.09375 C 38.097656 -77.644531 39.242188 -73.863281 39.359375 -68.75 C 39.359375 -66.570312 39.328125 -63.578125 39.265625 -59.765625 C 39.210938 -55.953125 39.101562 -51.734375 38.9375 -47.109375 C 38.78125 -42.484375 38.617188 -37.859375 38.453125 -33.234375 C 38.296875 -28.609375 38.160156 -24.332031 38.046875 -20.40625 C 37.941406 -16.488281 37.890625 -13.332031 37.890625 -10.9375 C 37.890625 -7.34375 36.851562 -4.347656 34.78125 -1.953125 C 32.707031 0.441406 29.441406 1.640625 24.984375 1.640625 Z M 26.953125 -94.21875 C 21.398438 -94.21875 16.9375 -95.660156 13.5625 -98.546875 C 10.1875 -101.429688 8.5 -104.941406 8.5 -109.078125 C 8.5 -113.546875 9.992188 -116.976562 12.984375 -119.375 C 15.972656 -121.769531 19.8125 -122.96875 24.5 -122.96875 C 28.195312 -122.96875 31.296875 -122.148438 33.796875 -120.515625 C 36.304688 -118.878906 38.238281 -116.863281 39.59375 -114.46875 C 40.957031 -112.070312 41.640625 -109.675781 41.640625 -107.28125 C 41.640625 -104.125 40.523438 -101.15625 38.296875 -98.375 C 36.066406 -95.601562 32.285156 -94.21875 26.953125 -94.21875 Z M 26.953125 -94.21875 "/></g></g></g><g fill="#000000" fill-opacity="1"><g transform="translate(652.812056, 395.286078)"><g><path d="M 34.625 1.640625 C 31.46875 1.640625 28.253906 1.335938 24.984375 0.734375 C 21.710938 0.140625 18.71875 -0.804688 16 -2.109375 C 13.28125 -3.421875 11.078125 -5.140625 9.390625 -7.265625 C 7.703125 -9.390625 6.859375 -11.972656 6.859375 -15.015625 C 6.859375 -18.285156 7.972656 -20.679688 10.203125 -22.203125 C 12.429688 -23.734375 15.234375 -24.5 18.609375 -24.5 C 20.578125 -24.5 22.785156 -24.253906 25.234375 -23.765625 C 27.679688 -23.273438 30.15625 -23.03125 32.65625 -23.03125 C 36.570312 -23.03125 40.65625 -23.570312 44.90625 -24.65625 C 49.15625 -25.75 53.15625 -27.410156 56.90625 -29.640625 C 60.664062 -31.867188 63.710938 -34.722656 66.046875 -38.203125 C 68.390625 -41.691406 69.5625 -45.832031 69.5625 -50.625 C 69.5625 -52.46875 69.316406 -54.097656 68.828125 -55.515625 C 68.335938 -56.929688 67.519531 -58.046875 66.375 -58.859375 C 65.238281 -59.679688 63.632812 -60.09375 61.5625 -60.09375 C 56.445312 -60.09375 51.925781 -58.515625 48 -55.359375 C 44.082031 -52.203125 40.765625 -47.875 38.046875 -42.375 C 35.328125 -36.875 33.257812 -30.476562 31.84375 -23.1875 C 31.40625 -20.90625 30.53125 -19.132812 29.21875 -17.875 C 27.914062 -16.625 26.234375 -16 24.171875 -16 C 21.554688 -16 19.101562 -17.085938 16.8125 -19.265625 C 14.53125 -21.441406 13.007812 -24.488281 12.25 -28.40625 C 11.269531 -34.070312 10.425781 -39.734375 9.71875 -45.390625 C 9.007812 -51.054688 8.460938 -56.363281 8.078125 -61.3125 C 7.703125 -66.269531 7.515625 -70.4375 7.515625 -73.8125 C 7.515625 -79.039062 7.675781 -83.554688 8 -87.359375 C 8.320312 -91.171875 8.675781 -94.546875 9.0625 -97.484375 C 9.445312 -100.421875 9.71875 -103.171875 9.875 -105.734375 C 10.039062 -108.296875 10.015625 -110.9375 9.796875 -113.65625 C 9.578125 -116.59375 10.117188 -119.09375 11.421875 -121.15625 C 12.734375 -123.226562 15.1875 -124.265625 18.78125 -124.265625 C 21.9375 -124.265625 24.679688 -123.640625 27.015625 -122.390625 C 29.359375 -121.140625 31.15625 -119.207031 32.40625 -116.59375 C 33.664062 -113.976562 34.296875 -110.660156 34.296875 -106.640625 C 34.296875 -104.785156 34.15625 -102.769531 33.875 -100.59375 C 33.601562 -98.414062 33.273438 -96.019531 32.890625 -93.40625 C 32.515625 -90.789062 32.191406 -87.984375 31.921875 -84.984375 C 31.648438 -81.992188 31.515625 -78.8125 31.515625 -75.4375 C 31.515625 -71.082031 31.539062 -67.132812 31.59375 -63.59375 C 31.644531 -60.0625 31.890625 -55.957031 32.328125 -51.28125 L 26.453125 -57.640625 C 28.085938 -62.535156 30.703125 -67.050781 34.296875 -71.1875 C 37.890625 -75.332031 42.078125 -78.65625 46.859375 -81.15625 C 51.648438 -83.664062 56.660156 -84.921875 61.890625 -84.921875 C 67.984375 -84.921875 73.503906 -83.691406 78.453125 -81.234375 C 83.410156 -78.785156 87.382812 -74.921875 90.375 -69.640625 C 93.375 -64.359375 94.875 -57.53125 94.875 -49.15625 C 94.875 -41.644531 93.1875 -34.785156 89.8125 -28.578125 C 86.4375 -22.367188 81.890625 -17.003906 76.171875 -12.484375 C 70.460938 -7.972656 64.015625 -4.488281 56.828125 -2.03125 C 49.640625 0.414062 42.238281 1.640625 34.625 1.640625 Z M 34.625 1.640625 "/></g></g></g><g fill="#000000" fill-opacity="1"><g transform="translate(754.21, 395.286078)"><g><path d="M 27.59375 1.953125 C 24.976562 1.953125 22.691406 1.164062 20.734375 -0.40625 C 18.773438 -1.988281 17.222656 -4.164062 16.078125 -6.9375 C 14.941406 -9.71875 14.375 -12.90625 14.375 -16.5 C 14.375 -24.007812 14.179688 -30.753906 13.796875 -36.734375 C 13.421875 -42.722656 12.847656 -48.085938 12.078125 -52.828125 C 11.316406 -57.566406 10.285156 -61.726562 8.984375 -65.3125 C 7.890625 -68.144531 7.207031 -70.238281 6.9375 -71.59375 C 6.664062 -72.957031 6.53125 -74.40625 6.53125 -75.9375 C 6.53125 -78.113281 7.289062 -79.878906 8.8125 -81.234375 C 10.34375 -82.597656 12.796875 -83.28125 16.171875 -83.28125 C 19.210938 -83.28125 21.929688 -82.625 24.328125 -81.3125 C 26.722656 -80.007812 28.789062 -77.832031 30.53125 -74.78125 C 32.28125 -71.738281 33.722656 -67.550781 34.859375 -62.21875 C 36.003906 -56.882812 36.738281 -50.132812 37.0625 -41.96875 L 27.4375 -40.5 C 29.5 -47.570312 32.132812 -53.828125 35.34375 -59.265625 C 38.5625 -64.710938 42.210938 -69.285156 46.296875 -72.984375 C 50.378906 -76.691406 54.597656 -79.5 58.953125 -81.40625 C 63.304688 -83.3125 67.550781 -84.265625 71.6875 -84.265625 C 76.144531 -84.265625 79.378906 -83.09375 81.390625 -80.75 C 83.410156 -78.40625 84.421875 -75.273438 84.421875 -71.359375 C 84.421875 -68.640625 83.519531 -66.269531 81.71875 -64.25 C 79.925781 -62.238281 76.960938 -60.253906 72.828125 -58.296875 C 67.054688 -55.679688 62.179688 -52.769531 58.203125 -49.5625 C 54.234375 -46.351562 51.023438 -42.816406 48.578125 -38.953125 C 46.128906 -35.085938 44.28125 -30.972656 43.03125 -26.609375 C 41.78125 -22.253906 40.878906 -17.628906 40.328125 -12.734375 C 39.785156 -8.816406 38.96875 -5.796875 37.875 -3.671875 C 36.789062 -1.546875 35.40625 -0.0742188 33.71875 0.734375 C 32.03125 1.546875 29.988281 1.953125 27.59375 1.953125 Z M 27.59375 1.953125 "/></g></g></g><g fill="#000000" fill-opacity="1"><g transform="translate(833.72774, 395.286078)"><g><path d="M 33.640625 1.640625 C 27.972656 1.640625 23.015625 0.574219 18.765625 -1.546875 C 14.523438 -3.671875 11.207031 -6.664062 8.8125 -10.53125 C 6.414062 -14.394531 5.21875 -18.882812 5.21875 -24 C 5.21875 -29.550781 6.144531 -35.210938 8 -40.984375 C 9.851562 -46.753906 12.410156 -52.25 15.671875 -57.46875 C 18.941406 -62.695312 22.722656 -67.378906 27.015625 -71.515625 C 31.316406 -75.660156 35.914062 -78.929688 40.8125 -81.328125 C 45.71875 -83.722656 50.675781 -84.921875 55.6875 -84.921875 C 59.707031 -84.921875 63.132812 -83.613281 65.96875 -81 C 68.800781 -78.382812 70.21875 -74.679688 70.21875 -69.890625 C 70.21875 -68.148438 69.726562 -66.789062 68.75 -65.8125 C 67.769531 -64.832031 66.515625 -64.175781 64.984375 -63.84375 C 58.023438 -62.757812 51.875 -60.066406 46.53125 -55.765625 C 41.195312 -51.460938 37.003906 -46.34375 33.953125 -40.40625 C 30.910156 -34.476562 29.390625 -28.300781 29.390625 -21.875 C 29.390625 -20.03125 29.523438 -18.316406 29.796875 -16.734375 C 30.066406 -15.160156 30.640625 -13.175781 31.515625 -10.78125 L 20.40625 -27.4375 C 23.019531 -25.476562 25.332031 -24.144531 27.34375 -23.4375 C 29.363281 -22.726562 31.734375 -22.375 34.453125 -22.375 C 40.003906 -22.375 45.175781 -25.828125 49.96875 -32.734375 C 54.757812 -39.648438 58.1875 -49.804688 60.25 -63.203125 C 60.582031 -65.804688 61.726562 -67.84375 63.6875 -69.3125 C 65.644531 -70.789062 67.875 -71.53125 70.375 -71.53125 C 74.625 -71.53125 78.21875 -70.382812 81.15625 -68.09375 C 84.09375 -65.8125 86.160156 -62.984375 87.359375 -59.609375 C 89.210938 -54.597656 90.925781 -49.941406 92.5 -45.640625 C 94.082031 -41.335938 95.988281 -37.195312 98.21875 -33.21875 C 100.457031 -29.25 103.476562 -25.144531 107.28125 -20.90625 C 108.695312 -19.269531 109.429688 -17.226562 109.484375 -14.78125 C 109.546875 -12.332031 109.085938 -9.878906 108.109375 -7.421875 C 107.128906 -4.972656 105.6875 -2.929688 103.78125 -1.296875 C 101.875 0.324219 99.554688 1.140625 96.828125 1.140625 C 94.867188 1.140625 93.289062 0.785156 92.09375 0.078125 C 90.894531 -0.628906 89.863281 -1.523438 89 -2.609375 C 86.601562 -5.441406 84.476562 -8.242188 82.625 -11.015625 C 80.78125 -13.796875 79.066406 -16.738281 77.484375 -19.84375 C 75.898438 -22.945312 74.425781 -26.429688 73.0625 -30.296875 C 71.707031 -34.160156 70.320312 -38.648438 68.90625 -43.765625 L 77.5625 -44.421875 C 75.5 -35.710938 72.832031 -28.414062 69.5625 -22.53125 C 66.300781 -16.65625 62.738281 -11.921875 58.875 -8.328125 C 55.007812 -4.734375 50.925781 -2.171875 46.625 -0.640625 C 42.320312 0.878906 37.992188 1.640625 33.640625 1.640625 Z M 33.640625 1.640625 "/></g></g></g><g fill="#000000" fill-opacity="1"><g transform="translate(942.963103, 395.286078)"><g><path d="M 27.59375 1.953125 C 24.976562 1.953125 22.691406 1.164062 20.734375 -0.40625 C 18.773438 -1.988281 17.222656 -4.164062 16.078125 -6.9375 C 14.941406 -9.71875 14.375 -12.90625 14.375 -16.5 C 14.375 -24.007812 14.179688 -30.753906 13.796875 -36.734375 C 13.421875 -42.722656 12.847656 -48.085938 12.078125 -52.828125 C 11.316406 -57.566406 10.285156 -61.726562 8.984375 -65.3125 C 7.890625 -68.144531 7.207031 -70.238281 6.9375 -71.59375 C 6.664062 -72.957031 6.53125 -74.40625 6.53125 -75.9375 C 6.53125 -78.113281 7.289062 -79.878906 8.8125 -81.234375 C 10.34375 -82.597656 12.796875 -83.28125 16.171875 -83.28125 C 19.210938 -83.28125 21.929688 -82.625 24.328125 -81.3125 C 26.722656 -80.007812 28.789062 -77.832031 30.53125 -74.78125 C 32.28125 -71.738281 33.722656 -67.550781 34.859375 -62.21875 C 36.003906 -56.882812 36.738281 -50.132812 37.0625 -41.96875 L 27.4375 -40.5 C 29.5 -47.570312 32.132812 -53.828125 35.34375 -59.265625 C 38.5625 -64.710938 42.210938 -69.285156 46.296875 -72.984375 C 50.378906 -76.691406 54.597656 -79.5 58.953125 -81.40625 C 63.304688 -83.3125 67.550781 -84.265625 71.6875 -84.265625 C 76.144531 -84.265625 79.378906 -83.09375 81.390625 -80.75 C 83.410156 -78.40625 84.421875 -75.273438 84.421875 -71.359375 C 84.421875 -68.640625 83.519531 -66.269531 81.71875 -64.25 C 79.925781 -62.238281 76.960938 -60.253906 72.828125 -58.296875 C 67.054688 -55.679688 62.179688 -52.769531 58.203125 -49.5625 C 54.234375 -46.351562 51.023438 -42.816406 48.578125 -38.953125 C 46.128906 -35.085938 44.28125 -30.972656 43.03125 -26.609375 C 41.78125 -22.253906 40.878906 -17.628906 40.328125 -12.734375 C 39.785156 -8.816406 38.96875 -5.796875 37.875 -3.671875 C 36.789062 -1.546875 35.40625 -0.0742188 33.71875 0.734375 C 32.03125 1.546875 29.988281 1.953125 27.59375 1.953125 Z M 27.59375 1.953125 "/></g></g></g><g fill="#000000" fill-opacity="1"><g transform="translate(1029.50235, 395.286078)"><g><path d="M 52.25 42.625 C 42.894531 42.625 35.359375 41.671875 29.640625 39.765625 C 23.921875 37.859375 19.753906 35.242188 17.140625 31.921875 C 14.535156 28.597656 13.234375 24.816406 13.234375 20.578125 C 13.234375 14.265625 16.28125 11.109375 22.375 11.109375 C 24.21875 11.109375 25.875 11.40625 27.34375 12 C 28.820312 12.601562 30.539062 13.335938 32.5 14.203125 C 34.457031 15.078125 36.90625 15.8125 39.84375 16.40625 C 42.78125 17.007812 46.644531 17.3125 51.4375 17.3125 C 55.25 17.3125 58.269531 16.65625 60.5 15.34375 C 62.726562 14.039062 64.359375 12.164062 65.390625 9.71875 C 66.429688 7.269531 66.953125 4.300781 66.953125 0.8125 C 66.953125 -3.207031 66.867188 -6.820312 66.703125 -10.03125 C 66.546875 -13.25 66.410156 -16.4375 66.296875 -19.59375 C 66.191406 -22.75 66.054688 -26.066406 65.890625 -29.546875 C 65.722656 -33.035156 65.640625 -36.957031 65.640625 -41.3125 L 73.328125 -35.59375 C 71.035156 -30.59375 68.582031 -26.484375 65.96875 -23.265625 C 63.351562 -20.054688 60.6875 -17.550781 57.96875 -15.75 C 55.25 -13.957031 52.554688 -12.734375 49.890625 -12.078125 C 47.222656 -11.429688 44.742188 -11.109375 42.453125 -11.109375 C 31.566406 -11.109375 22.96875 -14.671875 16.65625 -21.796875 C 10.34375 -28.929688 7.1875 -40.335938 7.1875 -56.015625 C 7.1875 -64.066406 7.726562 -70.132812 8.8125 -74.21875 C 9.90625 -78.300781 11.457031 -81.050781 13.46875 -82.46875 C 15.488281 -83.882812 17.859375 -84.59375 20.578125 -84.59375 C 25.910156 -84.59375 29.691406 -83.226562 31.921875 -80.5 C 34.148438 -77.78125 35.265625 -74.460938 35.265625 -70.546875 C 35.160156 -66.835938 34.863281 -63 34.375 -59.03125 C 33.882812 -55.0625 33.609375 -51.332031 33.546875 -47.84375 C 33.492188 -44.363281 33.984375 -41.535156 35.015625 -39.359375 C 36.054688 -37.179688 38.046875 -36.09375 40.984375 -36.09375 C 45.015625 -36.09375 48.550781 -37.859375 51.59375 -41.390625 C 54.644531 -44.929688 57.125 -49.664062 59.03125 -55.59375 C 60.9375 -61.53125 62.269531 -67.929688 63.03125 -74.796875 C 63.46875 -78.273438 64.363281 -80.75 65.71875 -82.21875 C 67.082031 -83.6875 69.398438 -84.421875 72.671875 -84.421875 C 75.492188 -84.421875 78.101562 -83.710938 80.5 -82.296875 C 82.894531 -80.878906 84.742188 -78.78125 86.046875 -76 C 87.359375 -73.226562 87.742188 -69.664062 87.203125 -65.3125 C 86.546875 -59.875 86.269531 -55.054688 86.375 -50.859375 C 86.488281 -46.671875 86.765625 -42.753906 87.203125 -39.109375 C 87.640625 -35.460938 88.15625 -31.757812 88.75 -28 C 89.351562 -24.25 89.867188 -20.054688 90.296875 -15.421875 C 90.734375 -10.796875 90.953125 -5.382812 90.953125 0.8125 C 90.953125 10.28125 89.265625 18.117188 85.890625 24.328125 C 82.515625 30.535156 77.914062 35.132812 72.09375 38.125 C 66.269531 41.125 59.65625 42.625 52.25 42.625 Z M 52.25 42.625 "/></g></g></g></g></g></g></g></g></g></svg>