<svg xmlns="http://www.w3.org/2000/svg" xmlns:xlink="http://www.w3.org/1999/xlink" width="223" zoomAndPan="magnify" viewBox="0 0 167.25 167.249997" height="223" preserveAspectRatio="xMidYMid meet" version="1.0"><defs><clipPath id="b7f904c7a1"><path d="M 0 24 L 166.503906 24 L 166.503906 136 L 0 136 Z M 0 24 " clip-rule="nonzero"/></clipPath><clipPath id="ef2607f2d7"><path d="M 68 126 L 99 126 L 99 166.503906 L 68 166.503906 Z M 68 126 " clip-rule="nonzero"/></clipPath></defs><path fill="#293a4c" d="M 29.628906 44.3125 C 21.25 44.3125 14.433594 37.496094 14.433594 29.117188 C 14.433594 20.738281 21.25 13.921875 29.628906 13.921875 C 38.007812 13.921875 44.824219 20.738281 44.824219 29.117188 C 44.824219 37.496094 38.007812 44.3125 29.628906 44.3125 Z M 29.628906 22.683594 C 26.082031 22.683594 23.195312 25.570312 23.195312 29.117188 C 23.195312 32.664062 26.082031 35.550781 29.628906 35.550781 C 33.175781 35.550781 36.0625 32.664062 36.0625 29.117188 C 36.0625 25.570312 33.175781 22.683594 29.628906 22.683594 Z M 29.628906 22.683594 " fill-opacity="1" fill-rule="nonzero"/><path fill="#293a4c" d="M 114.730469 44.3125 C 106.351562 44.3125 99.535156 37.496094 99.535156 29.117188 C 99.535156 20.738281 106.351562 13.921875 114.730469 13.921875 C 123.105469 13.921875 129.925781 20.738281 129.925781 29.117188 C 129.925781 37.496094 123.105469 44.3125 114.730469 44.3125 Z M 114.730469 22.683594 C 111.183594 22.683594 108.296875 25.570312 108.296875 29.117188 C 108.296875 32.664062 111.183594 35.550781 114.730469 35.550781 C 118.277344 35.550781 121.160156 32.664062 121.160156 29.117188 C 121.160156 25.570312 118.277344 22.683594 114.730469 22.683594 Z M 114.730469 22.683594 " fill-opacity="1" fill-rule="nonzero"/><path fill="#293a4c" d="M 62.820312 33.5 C 61.453125 33.5 60.109375 32.863281 59.25 31.667969 L 42.851562 8.761719 L 34.011719 8.761719 L 34.011719 17.132812 C 34.011719 19.550781 32.046875 21.515625 29.628906 21.515625 C 27.210938 21.515625 25.246094 19.550781 25.246094 17.132812 L 25.246094 4.382812 C 25.246094 1.964844 27.210938 0 29.628906 0 L 45.105469 0 C 46.515625 0 47.84375 0.679688 48.667969 1.832031 L 66.378906 26.566406 C 67.789062 28.535156 67.335938 31.269531 65.367188 32.679688 C 64.589844 33.234375 63.703125 33.5 62.820312 33.5 Z M 62.820312 33.5 " fill-opacity="1" fill-rule="nonzero"/><path fill="#293a4c" d="M 147.695312 33.5 C 146.332031 33.5 144.984375 32.863281 144.128906 31.667969 L 127.730469 8.761719 L 118.886719 8.761719 L 118.886719 17.132812 C 118.886719 19.550781 116.921875 21.515625 114.503906 21.515625 C 112.085938 21.515625 110.121094 19.550781 110.121094 17.132812 L 110.121094 4.382812 C 110.121094 1.964844 112.085938 0 114.503906 0 L 129.980469 0 C 131.390625 0 132.71875 0.679688 133.542969 1.832031 L 151.253906 26.566406 C 152.664062 28.535156 152.210938 31.269531 150.242188 32.679688 C 149.46875 33.234375 148.578125 33.5 147.695312 33.5 Z M 147.695312 33.5 " fill-opacity="1" fill-rule="nonzero"/><g clip-path="url(#b7f904c7a1)"><path fill="#293a4c" d="M 153.09375 135.714844 L 13.40625 135.714844 C 6.160156 135.714844 0.261719 129.816406 0.261719 122.570312 L 0.261719 37.886719 C 0.261719 30.640625 6.160156 24.742188 13.40625 24.742188 L 18.847656 24.742188 C 21.265625 24.742188 23.230469 26.703125 23.230469 29.125 C 23.230469 31.542969 21.265625 33.503906 18.847656 33.503906 L 13.40625 33.503906 C 10.992188 33.503906 9.027344 35.472656 9.027344 37.886719 L 9.027344 122.570312 C 9.027344 124.984375 10.992188 126.953125 13.40625 126.953125 L 153.09375 126.953125 C 155.511719 126.953125 157.476562 124.984375 157.476562 122.570312 L 157.476562 37.886719 C 157.476562 35.472656 155.511719 33.503906 153.09375 33.503906 L 125.542969 33.503906 C 123.125 33.503906 121.160156 31.542969 121.160156 29.125 C 121.160156 26.703125 123.125 24.742188 125.542969 24.742188 L 153.09375 24.742188 C 160.34375 24.742188 166.242188 30.640625 166.242188 37.886719 L 166.242188 122.570312 C 166.242188 129.816406 160.34375 135.714844 153.09375 135.714844 Z M 153.09375 135.714844 " fill-opacity="1" fill-rule="nonzero"/></g><g clip-path="url(#ef2607f2d7)"><path fill="#293a4c" d="M 93.628906 166.503906 L 72.875 166.503906 C 70.457031 166.503906 68.496094 164.539062 68.496094 162.121094 L 68.496094 131.324219 C 68.496094 128.90625 70.457031 126.941406 72.875 126.941406 L 93.628906 126.941406 C 96.050781 126.941406 98.011719 128.90625 98.011719 131.324219 L 98.011719 162.121094 C 98.011719 164.539062 96.050781 166.503906 93.628906 166.503906 Z M 77.253906 157.738281 L 89.246094 157.738281 L 89.246094 135.707031 L 77.253906 135.707031 Z M 77.253906 157.738281 " fill-opacity="1" fill-rule="nonzero"/></g><path fill="#293a4c" d="M 89.238281 83.25 L 72.941406 92.746094 L 72.941406 73.757812 Z M 89.238281 83.25 " fill-opacity="1" fill-rule="nonzero"/><path fill="#293a4c" d="M 140.359375 50.621094 L 26.144531 50.621094 C 22.902344 50.621094 20.300781 53.25 20.300781 56.464844 L 20.300781 110.039062 C 20.300781 113.25 22.902344 115.878906 26.144531 115.878906 L 140.359375 115.878906 C 143.601562 115.878906 146.203125 113.25 146.203125 110.039062 L 146.203125 56.464844 C 146.203125 53.25 143.601562 50.621094 140.359375 50.621094 Z M 100.164062 87.050781 L 70.777344 104.167969 C 70.078125 104.574219 69.316406 104.78125 68.558594 104.78125 C 67.800781 104.78125 67.039062 104.574219 66.367188 104.195312 C 65.023438 103.40625 64.175781 101.945312 64.175781 100.398438 L 64.175781 66.105469 C 64.175781 64.554688 65.023438 63.097656 66.367188 62.308594 C 67.742188 61.546875 69.40625 61.546875 70.777344 62.335938 L 100.164062 79.453125 C 101.507812 80.242188 102.328125 81.703125 102.328125 83.25 C 102.328125 84.800781 101.507812 86.261719 100.164062 87.050781 Z M 100.164062 87.050781 " fill-opacity="1" fill-rule="nonzero"/><path fill="#293a4c" d="M 140.359375 46.242188 L 26.144531 46.242188 C 20.507812 46.242188 15.921875 50.828125 15.921875 56.464844 L 15.921875 110.039062 C 15.921875 115.675781 20.507812 120.261719 26.144531 120.261719 L 140.359375 120.261719 C 145.996094 120.261719 150.582031 115.675781 150.582031 110.039062 L 150.582031 56.464844 C 150.582031 50.828125 145.996094 46.242188 140.359375 46.242188 Z M 141.820312 110.039062 C 141.820312 110.855469 141.175781 111.5 140.359375 111.5 L 26.144531 111.5 C 25.324219 111.5 24.683594 110.855469 24.683594 110.039062 L 24.683594 56.464844 C 24.683594 55.648438 25.324219 55.003906 26.144531 55.003906 L 140.359375 55.003906 C 141.175781 55.003906 141.820312 55.648438 141.820312 56.464844 Z M 141.820312 110.039062 " fill-opacity="1" fill-rule="nonzero"/><path fill="#293a4c" d="M 103.914062 33.503906 L 40.441406 33.503906 C 38.023438 33.503906 36.0625 31.542969 36.0625 29.125 C 36.0625 26.703125 38.023438 24.742188 40.441406 24.742188 L 103.914062 24.742188 C 106.335938 24.742188 108.296875 26.703125 108.296875 29.125 C 108.296875 31.542969 106.335938 33.503906 103.914062 33.503906 Z M 103.914062 33.503906 " fill-opacity="1" fill-rule="nonzero"/></svg>